solid OpenSCAD_Model
  facet normal 1 -0 0
    outer loop
      vertex 23 -5 3
      vertex 23 0 0
      vertex 23 0 3
    endloop
  endfacet
  facet normal 1 0 0
    outer loop
      vertex 23 0 0
      vertex 23 -5 3
      vertex 23 -5 0
    endloop
  endfacet
  facet normal 0 0 1
    outer loop
      vertex 23 0 3
      vertex 21 -1 3
      vertex 23 -5 3
    endloop
  endfacet
  facet normal 0 0 1
    outer loop
      vertex 23 0 3
      vertex 17 -1 3
      vertex 21 -1 3
    endloop
  endfacet
  facet normal 0 0 1
    outer loop
      vertex 17 -1 3
      vertex 15 0 3
      vertex 17 -4 3
    endloop
  endfacet
  facet normal -0 0 1
    outer loop
      vertex 15 0 3
      vertex 17 -1 3
      vertex 23 0 3
    endloop
  endfacet
  facet normal -0 0 1
    outer loop
      vertex 21 -4 3
      vertex 23 -5 3
      vertex 21 -1 3
    endloop
  endfacet
  facet normal -0 0 1
    outer loop
      vertex 17 -4 3
      vertex 23 -5 3
      vertex 21 -4 3
    endloop
  endfacet
  facet normal 0 0 1
    outer loop
      vertex 17 -4 3
      vertex 15 -5 3
      vertex 23 -5 3
    endloop
  endfacet
  facet normal 0 0 1
    outer loop
      vertex 15 -5 3
      vertex 17 -4 3
      vertex 15 0 3
    endloop
  endfacet
  facet normal 0 0 -1
    outer loop
      vertex 23 -5 0
      vertex 21 -4 0
      vertex 23 0 0
    endloop
  endfacet
  facet normal 0 0 -1
    outer loop
      vertex 23 -5 0
      vertex 17 -4 0
      vertex 21 -4 0
    endloop
  endfacet
  facet normal -0 0 -1
    outer loop
      vertex 17 -4 0
      vertex 15 -5 0
      vertex 17 -1 0
    endloop
  endfacet
  facet normal 0 0 -1
    outer loop
      vertex 15 -5 0
      vertex 17 -4 0
      vertex 23 -5 0
    endloop
  endfacet
  facet normal 0 0 -1
    outer loop
      vertex 23 0 0
      vertex 38 12 0
      vertex 38 0 0
    endloop
  endfacet
  facet normal 0 0 -1
    outer loop
      vertex 21 -1 0
      vertex 23 0 0
      vertex 21 -4 0
    endloop
  endfacet
  facet normal 0 0 -1
    outer loop
      vertex 15 0 0
      vertex 23 0 0
      vertex 21 -1 0
    endloop
  endfacet
  facet normal 0 0 -1
    outer loop
      vertex 15 0 0
      vertex 21 -1 0
      vertex 17 -1 0
    endloop
  endfacet
  facet normal 0 0 -1
    outer loop
      vertex 15 0 0
      vertex 17 -1 0
      vertex 15 -5 0
    endloop
  endfacet
  facet normal 0 0 -1
    outer loop
      vertex 23 0 0
      vertex 15 0 0
      vertex 38 12 0
    endloop
  endfacet
  facet normal 0 0 -1
    outer loop
      vertex 0 12 0
      vertex 15 0 0
      vertex 0 0 0
    endloop
  endfacet
  facet normal 0 0 -1
    outer loop
      vertex 15 0 0
      vertex 0 12 0
      vertex 38 12 0
    endloop
  endfacet
  facet normal -1 0 0
    outer loop
      vertex 15 -5 0
      vertex 15 0 3
      vertex 15 0 0
    endloop
  endfacet
  facet normal -1 -0 0
    outer loop
      vertex 15 0 3
      vertex 15 -5 0
      vertex 15 -5 3
    endloop
  endfacet
  facet normal 0 -1 0
    outer loop
      vertex 0 0 25
      vertex 15 0 22
      vertex 15 0 25
    endloop
  endfacet
  facet normal 0 -1 0
    outer loop
      vertex 0 0 25
      vertex 6.43837 0 15.4941
      vertex 15 0 22
    endloop
  endfacet
  facet normal 0 -1 0
    outer loop
      vertex 6.43837 0 15.4941
      vertex 0 0 25
      vertex 6.06163 0 15.4941
    endloop
  endfacet
  facet normal 0 -1 0
    outer loop
      vertex 0 0 25
      vertex 5.68786 0 15.4469
      vertex 6.06163 0 15.4941
    endloop
  endfacet
  facet normal 0 -1 0
    outer loop
      vertex 0 0 25
      vertex 5.32295 0 15.3532
      vertex 5.68786 0 15.4469
    endloop
  endfacet
  facet normal 0 -1 0
    outer loop
      vertex 0 0 25
      vertex 4.97266 0 15.2145
      vertex 5.32295 0 15.3532
    endloop
  endfacet
  facet normal 0 -1 0
    outer loop
      vertex 0 0 25
      vertex 4.64252 0 15.033
      vertex 4.97266 0 15.2145
    endloop
  endfacet
  facet normal 0 -1 0
    outer loop
      vertex 0 0 25
      vertex 4.33773 0 14.8115
      vertex 4.64252 0 15.033
    endloop
  endfacet
  facet normal 0 -1 0
    outer loop
      vertex 0 0 25
      vertex 4.06309 0 14.5536
      vertex 4.33773 0 14.8115
    endloop
  endfacet
  facet normal 0 -1 0
    outer loop
      vertex 0 0 25
      vertex 3.82295 0 14.2634
      vertex 4.06309 0 14.5536
    endloop
  endfacet
  facet normal 0 -1 0
    outer loop
      vertex 0 0 25
      vertex 3.62108 0 13.9453
      vertex 3.82295 0 14.2634
    endloop
  endfacet
  facet normal 0 -1 0
    outer loop
      vertex 0 0 25
      vertex 3.46067 0 13.6044
      vertex 3.62108 0 13.9453
    endloop
  endfacet
  facet normal 0 -1 0
    outer loop
      vertex 0 0 25
      vertex 3.34425 0 13.2461
      vertex 3.46067 0 13.6044
    endloop
  endfacet
  facet normal 0 -1 0
    outer loop
      vertex 0 0 25
      vertex 3.27366 0 12.876
      vertex 3.34425 0 13.2461
    endloop
  endfacet
  facet normal 0 -1 0
    outer loop
      vertex 0 0 25
      vertex 3.25 0 12.5
      vertex 3.27366 0 12.876
    endloop
  endfacet
  facet normal 0 -1 0
    outer loop
      vertex 0 0 0
      vertex 3.25 0 12.5
      vertex 0 0 25
    endloop
  endfacet
  facet normal 0 -1 -0
    outer loop
      vertex 3.25 0 12.5
      vertex 0 0 0
      vertex 3.27366 0 12.124
    endloop
  endfacet
  facet normal 0 -1 0
    outer loop
      vertex 0 0 0
      vertex 6.43837 0 9.50592
      vertex 6.06163 0 9.50592
    endloop
  endfacet
  facet normal 0 -1 0
    outer loop
      vertex 0 0 0
      vertex 6.06163 0 9.50592
      vertex 5.68786 0 9.55314
    endloop
  endfacet
  facet normal 0 -1 0
    outer loop
      vertex 0 0 0
      vertex 5.68786 0 9.55314
      vertex 5.32295 0 9.64683
    endloop
  endfacet
  facet normal 0 -1 0
    outer loop
      vertex 0 0 0
      vertex 5.32295 0 9.64683
      vertex 4.97266 0 9.78552
    endloop
  endfacet
  facet normal 0 -1 0
    outer loop
      vertex 0 0 0
      vertex 4.97266 0 9.78552
      vertex 4.64252 0 9.96702
    endloop
  endfacet
  facet normal 0 -1 -0
    outer loop
      vertex 3.27366 0 12.124
      vertex 0 0 0
      vertex 3.34425 0 11.7539
    endloop
  endfacet
  facet normal 0 -1 0
    outer loop
      vertex 0 0 0
      vertex 3.46067 0 11.3956
      vertex 3.34425 0 11.7539
    endloop
  endfacet
  facet normal 0 -1 0
    outer loop
      vertex 0 0 0
      vertex 3.62108 0 11.0547
      vertex 3.46067 0 11.3956
    endloop
  endfacet
  facet normal 0 -1 0
    outer loop
      vertex 0 0 0
      vertex 3.82295 0 10.7366
      vertex 3.62108 0 11.0547
    endloop
  endfacet
  facet normal 0 -1 0
    outer loop
      vertex 0 0 0
      vertex 4.06309 0 10.4464
      vertex 3.82295 0 10.7366
    endloop
  endfacet
  facet normal 0 -1 0
    outer loop
      vertex 0 0 0
      vertex 4.33773 0 10.1885
      vertex 4.06309 0 10.4464
    endloop
  endfacet
  facet normal 0 -1 0
    outer loop
      vertex 0 0 0
      vertex 4.64252 0 9.96702
      vertex 4.33773 0 10.1885
    endloop
  endfacet
  facet normal 0 -1 -0
    outer loop
      vertex 6.43837 0 9.50592
      vertex 0 0 0
      vertex 15 0 3
    endloop
  endfacet
  facet normal 0 -1 -0
    outer loop
      vertex 15 0 3
      vertex 0 0 0
      vertex 15 0 0
    endloop
  endfacet
  facet normal 0 -1 0
    outer loop
      vertex 23 0 22
      vertex 38 0 25
      vertex 23 0 25
    endloop
  endfacet
  facet normal 0 -1 0
    outer loop
      vertex 6.81214 0 15.4469
      vertex 15 0 22
      vertex 6.43837 0 15.4941
    endloop
  endfacet
  facet normal 0 -1 0
    outer loop
      vertex 7.17705 0 15.3532
      vertex 15 0 22
      vertex 6.81214 0 15.4469
    endloop
  endfacet
  facet normal 0 -1 0
    outer loop
      vertex 7.52734 0 15.2145
      vertex 15 0 22
      vertex 7.17705 0 15.3532
    endloop
  endfacet
  facet normal 0 -1 0
    outer loop
      vertex 7.85748 0 15.033
      vertex 15 0 22
      vertex 7.52734 0 15.2145
    endloop
  endfacet
  facet normal 0 -1 0
    outer loop
      vertex 8.16227 0 14.8115
      vertex 15 0 22
      vertex 7.85748 0 15.033
    endloop
  endfacet
  facet normal 0 -1 0
    outer loop
      vertex 8.43691 0 14.5536
      vertex 15 0 22
      vertex 8.16227 0 14.8115
    endloop
  endfacet
  facet normal 0 -1 0
    outer loop
      vertex 8.67705 0 14.2634
      vertex 15 0 22
      vertex 8.43691 0 14.5536
    endloop
  endfacet
  facet normal 0 -1 0
    outer loop
      vertex 8.87892 0 13.9453
      vertex 15 0 22
      vertex 8.67705 0 14.2634
    endloop
  endfacet
  facet normal 0 -1 0
    outer loop
      vertex 9.03933 0 13.6044
      vertex 15 0 22
      vertex 8.87892 0 13.9453
    endloop
  endfacet
  facet normal 0 -1 0
    outer loop
      vertex 9.15575 0 13.2461
      vertex 15 0 22
      vertex 9.03933 0 13.6044
    endloop
  endfacet
  facet normal 0 -1 0
    outer loop
      vertex 9.22634 0 12.876
      vertex 15 0 22
      vertex 9.15575 0 13.2461
    endloop
  endfacet
  facet normal 0 -1 0
    outer loop
      vertex 9.25 0 12.5
      vertex 15 0 22
      vertex 9.22634 0 12.876
    endloop
  endfacet
  facet normal 0 -1 -0
    outer loop
      vertex 15 0 22
      vertex 9.25 0 12.5
      vertex 23 0 22
    endloop
  endfacet
  facet normal 0 -1 -0
    outer loop
      vertex 23 0 22
      vertex 9.25 0 12.5
      vertex 23 0 3
    endloop
  endfacet
  facet normal 0 -1 0
    outer loop
      vertex 15 0 3
      vertex 9.25 0 12.5
      vertex 9.22634 0 12.124
    endloop
  endfacet
  facet normal 0 -1 0
    outer loop
      vertex 15 0 3
      vertex 9.22634 0 12.124
      vertex 9.15575 0 11.7539
    endloop
  endfacet
  facet normal 0 -1 0
    outer loop
      vertex 15 0 3
      vertex 9.15575 0 11.7539
      vertex 9.03933 0 11.3956
    endloop
  endfacet
  facet normal 0 -1 0
    outer loop
      vertex 15 0 3
      vertex 9.03933 0 11.3956
      vertex 8.87892 0 11.0547
    endloop
  endfacet
  facet normal 0 -1 0
    outer loop
      vertex 15 0 3
      vertex 8.87892 0 11.0547
      vertex 8.67705 0 10.7366
    endloop
  endfacet
  facet normal 0 -1 0
    outer loop
      vertex 15 0 3
      vertex 8.67705 0 10.7366
      vertex 8.43691 0 10.4464
    endloop
  endfacet
  facet normal 0 -1 0
    outer loop
      vertex 15 0 3
      vertex 8.43691 0 10.4464
      vertex 8.16227 0 10.1885
    endloop
  endfacet
  facet normal 0 -1 0
    outer loop
      vertex 15 0 3
      vertex 8.16227 0 10.1885
      vertex 7.85748 0 9.96702
    endloop
  endfacet
  facet normal 0 -1 0
    outer loop
      vertex 15 0 3
      vertex 7.85748 0 9.96702
      vertex 7.52734 0 9.78552
    endloop
  endfacet
  facet normal 0 -1 0
    outer loop
      vertex 15 0 3
      vertex 6.81214 0 9.55314
      vertex 6.43837 0 9.50592
    endloop
  endfacet
  facet normal 0 -1 0
    outer loop
      vertex 15 0 3
      vertex 7.17705 0 9.64683
      vertex 6.81214 0 9.55314
    endloop
  endfacet
  facet normal 0 -1 0
    outer loop
      vertex 15 0 3
      vertex 7.52734 0 9.78552
      vertex 7.17705 0 9.64683
    endloop
  endfacet
  facet normal 0 -1 0
    outer loop
      vertex 9.25 0 12.5
      vertex 15 0 3
      vertex 23 0 3
    endloop
  endfacet
  facet normal 0 -1 0
    outer loop
      vertex 23 0 22
      vertex 23 0 3
      vertex 38 0 25
    endloop
  endfacet
  facet normal 0 -1 0
    outer loop
      vertex 38 0 0
      vertex 23 0 3
      vertex 23 0 0
    endloop
  endfacet
  facet normal 0 -1 0
    outer loop
      vertex 23 0 3
      vertex 38 0 0
      vertex 38 0 25
    endloop
  endfacet
  facet normal 0 -1 0
    outer loop
      vertex 15 -5 0
      vertex 23 -5 3
      vertex 15 -5 3
    endloop
  endfacet
  facet normal 0 -1 -0
    outer loop
      vertex 23 -5 3
      vertex 15 -5 0
      vertex 23 -5 0
    endloop
  endfacet
  facet normal -1 0 0
    outer loop
      vertex 21 -4 0
      vertex 21 -1 3
      vertex 21 -1 0
    endloop
  endfacet
  facet normal -1 -0 0
    outer loop
      vertex 21 -1 3
      vertex 21 -4 0
      vertex 21 -4 3
    endloop
  endfacet
  facet normal 1 -0 0
    outer loop
      vertex 17 -4 3
      vertex 17 -1 0
      vertex 17 -1 3
    endloop
  endfacet
  facet normal 1 0 0
    outer loop
      vertex 17 -1 0
      vertex 17 -4 3
      vertex 17 -4 0
    endloop
  endfacet
  facet normal 0 -1 0
    outer loop
      vertex 17 -1 0
      vertex 21 -1 3
      vertex 17 -1 3
    endloop
  endfacet
  facet normal 0 -1 -0
    outer loop
      vertex 21 -1 3
      vertex 17 -1 0
      vertex 21 -1 0
    endloop
  endfacet
  facet normal 0 1 -0
    outer loop
      vertex 21 -4 0
      vertex 17 -4 3
      vertex 21 -4 3
    endloop
  endfacet
  facet normal 0 1 0
    outer loop
      vertex 17 -4 3
      vertex 21 -4 0
      vertex 17 -4 0
    endloop
  endfacet
  facet normal 1 -0 0
    outer loop
      vertex 23 -5 25
      vertex 23 0 22
      vertex 23 0 25
    endloop
  endfacet
  facet normal 1 0 0
    outer loop
      vertex 23 0 22
      vertex 23 -5 25
      vertex 23 -5 22
    endloop
  endfacet
  facet normal 0 0 1
    outer loop
      vertex 38 12 25
      vertex 23 0 25
      vertex 38 0 25
    endloop
  endfacet
  facet normal 0 0 1
    outer loop
      vertex 23 0 25
      vertex 21 -1 25
      vertex 23 -5 25
    endloop
  endfacet
  facet normal 0 0 1
    outer loop
      vertex 15 0 25
      vertex 23 0 25
      vertex 38 12 25
    endloop
  endfacet
  facet normal 0 0 1
    outer loop
      vertex 23 0 25
      vertex 15 0 25
      vertex 21 -1 25
    endloop
  endfacet
  facet normal 0 0 1
    outer loop
      vertex 17 -1 25
      vertex 15 0 25
      vertex 17 -4 25
    endloop
  endfacet
  facet normal 0 0 1
    outer loop
      vertex 21 -1 25
      vertex 15 0 25
      vertex 17 -1 25
    endloop
  endfacet
  facet normal -0 0 1
    outer loop
      vertex 0 12 25
      vertex 15 0 25
      vertex 38 12 25
    endloop
  endfacet
  facet normal 0 0 1
    outer loop
      vertex 15 0 25
      vertex 0 12 25
      vertex 0 0 25
    endloop
  endfacet
  facet normal -0 0 1
    outer loop
      vertex 21 -4 25
      vertex 23 -5 25
      vertex 21 -1 25
    endloop
  endfacet
  facet normal -0 0 1
    outer loop
      vertex 17 -4 25
      vertex 23 -5 25
      vertex 21 -4 25
    endloop
  endfacet
  facet normal 0 0 1
    outer loop
      vertex 17 -4 25
      vertex 15 -5 25
      vertex 23 -5 25
    endloop
  endfacet
  facet normal 0 0 1
    outer loop
      vertex 15 -5 25
      vertex 17 -4 25
      vertex 15 0 25
    endloop
  endfacet
  facet normal 0 0 -1
    outer loop
      vertex 23 -5 22
      vertex 21 -4 22
      vertex 23 0 22
    endloop
  endfacet
  facet normal 0 0 -1
    outer loop
      vertex 23 -5 22
      vertex 17 -4 22
      vertex 21 -4 22
    endloop
  endfacet
  facet normal -0 0 -1
    outer loop
      vertex 17 -4 22
      vertex 15 -5 22
      vertex 17 -1 22
    endloop
  endfacet
  facet normal 0 0 -1
    outer loop
      vertex 15 -5 22
      vertex 17 -4 22
      vertex 23 -5 22
    endloop
  endfacet
  facet normal 0 0 -1
    outer loop
      vertex 21 -1 22
      vertex 23 0 22
      vertex 21 -4 22
    endloop
  endfacet
  facet normal 0 0 -1
    outer loop
      vertex 17 -1 22
      vertex 23 0 22
      vertex 21 -1 22
    endloop
  endfacet
  facet normal 0 0 -1
    outer loop
      vertex 17 -1 22
      vertex 15 0 22
      vertex 23 0 22
    endloop
  endfacet
  facet normal 0 0 -1
    outer loop
      vertex 15 0 22
      vertex 17 -1 22
      vertex 15 -5 22
    endloop
  endfacet
  facet normal -1 0 0
    outer loop
      vertex 15 -5 22
      vertex 15 0 25
      vertex 15 0 22
    endloop
  endfacet
  facet normal -1 -0 0
    outer loop
      vertex 15 0 25
      vertex 15 -5 22
      vertex 15 -5 25
    endloop
  endfacet
  facet normal 0 -1 0
    outer loop
      vertex 15 -5 22
      vertex 23 -5 25
      vertex 15 -5 25
    endloop
  endfacet
  facet normal 0 -1 -0
    outer loop
      vertex 23 -5 25
      vertex 15 -5 22
      vertex 23 -5 22
    endloop
  endfacet
  facet normal -1 0 0
    outer loop
      vertex 21 -4 22
      vertex 21 -1 25
      vertex 21 -1 22
    endloop
  endfacet
  facet normal -1 -0 0
    outer loop
      vertex 21 -1 25
      vertex 21 -4 22
      vertex 21 -4 25
    endloop
  endfacet
  facet normal 1 -0 0
    outer loop
      vertex 17 -4 25
      vertex 17 -1 22
      vertex 17 -1 25
    endloop
  endfacet
  facet normal 1 0 0
    outer loop
      vertex 17 -1 22
      vertex 17 -4 25
      vertex 17 -4 22
    endloop
  endfacet
  facet normal 0 -1 0
    outer loop
      vertex 17 -1 22
      vertex 21 -1 25
      vertex 17 -1 25
    endloop
  endfacet
  facet normal 0 -1 -0
    outer loop
      vertex 21 -1 25
      vertex 17 -1 22
      vertex 21 -1 22
    endloop
  endfacet
  facet normal 0 1 -0
    outer loop
      vertex 21 -4 22
      vertex 17 -4 25
      vertex 21 -4 25
    endloop
  endfacet
  facet normal 0 1 0
    outer loop
      vertex 17 -4 25
      vertex 21 -4 22
      vertex 17 -4 22
    endloop
  endfacet
  facet normal 1 -0 0
    outer loop
      vertex 38 0 25
      vertex 38 12 0
      vertex 38 12 25
    endloop
  endfacet
  facet normal 1 0 0
    outer loop
      vertex 38 12 0
      vertex 38 0 25
      vertex 38 0 0
    endloop
  endfacet
  facet normal -1 0 0
    outer loop
      vertex 0 0 0
      vertex 0 12 25
      vertex 0 12 0
    endloop
  endfacet
  facet normal -1 -0 0
    outer loop
      vertex 0 12 25
      vertex 0 0 0
      vertex 0 0 25
    endloop
  endfacet
  facet normal 0 1 0
    outer loop
      vertex 38 12 25
      vertex 35.5 12 22.5
      vertex 0 12 25
    endloop
  endfacet
  facet normal 0 1 0
    outer loop
      vertex 38 12 25
      vertex 35.5 12 2.5
      vertex 35.5 12 22.5
    endloop
  endfacet
  facet normal 0 1 0
    outer loop
      vertex 35.5 12 2.5
      vertex 38 12 0
      vertex 2.5 12 2.5
    endloop
  endfacet
  facet normal 0 1 -0
    outer loop
      vertex 38 12 0
      vertex 35.5 12 2.5
      vertex 38 12 25
    endloop
  endfacet
  facet normal 0 1 -0
    outer loop
      vertex 2.5 12 22.5
      vertex 0 12 25
      vertex 35.5 12 22.5
    endloop
  endfacet
  facet normal 0 1 -0
    outer loop
      vertex 2.5 12 2.5
      vertex 0 12 25
      vertex 2.5 12 22.5
    endloop
  endfacet
  facet normal 0 1 0
    outer loop
      vertex 2.5 12 2.5
      vertex 0 12 0
      vertex 0 12 25
    endloop
  endfacet
  facet normal 0 1 0
    outer loop
      vertex 0 12 0
      vertex 2.5 12 2.5
      vertex 38 12 0
    endloop
  endfacet
  facet normal -1 0 0
    outer loop
      vertex 35.5 5 2.5
      vertex 35.5 12 22.5
      vertex 35.5 12 2.5
    endloop
  endfacet
  facet normal -1 -0 0
    outer loop
      vertex 35.5 12 22.5
      vertex 35.5 5 2.5
      vertex 35.5 5 22.5
    endloop
  endfacet
  facet normal 0 0 -1
    outer loop
      vertex 2.5 5 22.5
      vertex 35.5 12 22.5
      vertex 35.5 5 22.5
    endloop
  endfacet
  facet normal -0 0 -1
    outer loop
      vertex 35.5 12 22.5
      vertex 2.5 5 22.5
      vertex 2.5 12 22.5
    endloop
  endfacet
  facet normal -0 0 1
    outer loop
      vertex 2.5 12 2.5
      vertex 35.5 5 2.5
      vertex 35.5 12 2.5
    endloop
  endfacet
  facet normal 0 0 1
    outer loop
      vertex 35.5 5 2.5
      vertex 2.5 12 2.5
      vertex 2.5 5 2.5
    endloop
  endfacet
  facet normal 1 -0 0
    outer loop
      vertex 2.5 5 22.5
      vertex 2.5 12 2.5
      vertex 2.5 12 22.5
    endloop
  endfacet
  facet normal 1 0 0
    outer loop
      vertex 2.5 12 2.5
      vertex 2.5 5 22.5
      vertex 2.5 5 2.5
    endloop
  endfacet
  facet normal 0 1 -0
    outer loop
      vertex 8.16227 5 14.8115
      vertex 2.5 5 22.5
      vertex 35.5 5 22.5
    endloop
  endfacet
  facet normal 0 1 0
    outer loop
      vertex 2.5 5 22.5
      vertex 6.81214 5 15.4469
      vertex 6.43837 5 15.4941
    endloop
  endfacet
  facet normal 0 1 0
    outer loop
      vertex 2.5 5 22.5
      vertex 7.17705 5 15.3532
      vertex 6.81214 5 15.4469
    endloop
  endfacet
  facet normal 0 1 0
    outer loop
      vertex 2.5 5 22.5
      vertex 7.52734 5 15.2145
      vertex 7.17705 5 15.3532
    endloop
  endfacet
  facet normal 0 1 0
    outer loop
      vertex 2.5 5 22.5
      vertex 7.85748 5 15.033
      vertex 7.52734 5 15.2145
    endloop
  endfacet
  facet normal 0 1 0
    outer loop
      vertex 2.5 5 22.5
      vertex 8.16227 5 14.8115
      vertex 7.85748 5 15.033
    endloop
  endfacet
  facet normal 0 1 0
    outer loop
      vertex 35.5 5 22.5
      vertex 8.43691 5 14.5536
      vertex 8.16227 5 14.8115
    endloop
  endfacet
  facet normal 0 1 0
    outer loop
      vertex 35.5 5 22.5
      vertex 8.67705 5 14.2634
      vertex 8.43691 5 14.5536
    endloop
  endfacet
  facet normal 0 1 0
    outer loop
      vertex 35.5 5 22.5
      vertex 8.87892 5 13.9453
      vertex 8.67705 5 14.2634
    endloop
  endfacet
  facet normal 0 1 0
    outer loop
      vertex 35.5 5 22.5
      vertex 9.03933 5 13.6044
      vertex 8.87892 5 13.9453
    endloop
  endfacet
  facet normal 0 1 0
    outer loop
      vertex 35.5 5 22.5
      vertex 9.15575 5 13.2461
      vertex 9.03933 5 13.6044
    endloop
  endfacet
  facet normal 0 1 0
    outer loop
      vertex 35.5 5 22.5
      vertex 9.22634 5 12.876
      vertex 9.15575 5 13.2461
    endloop
  endfacet
  facet normal 0 1 0
    outer loop
      vertex 35.5 5 22.5
      vertex 9.25 5 12.5
      vertex 9.22634 5 12.876
    endloop
  endfacet
  facet normal 0 1 -0
    outer loop
      vertex 35.5 5 2.5
      vertex 9.25 5 12.5
      vertex 35.5 5 22.5
    endloop
  endfacet
  facet normal 0 1 0
    outer loop
      vertex 9.25 5 12.5
      vertex 35.5 5 2.5
      vertex 9.22634 5 12.124
    endloop
  endfacet
  facet normal 0 1 0
    outer loop
      vertex 9.22634 5 12.124
      vertex 35.5 5 2.5
      vertex 9.15575 5 11.7539
    endloop
  endfacet
  facet normal 0 1 0
    outer loop
      vertex 9.15575 5 11.7539
      vertex 35.5 5 2.5
      vertex 9.03933 5 11.3956
    endloop
  endfacet
  facet normal 0 1 0
    outer loop
      vertex 9.03933 5 11.3956
      vertex 35.5 5 2.5
      vertex 8.87892 5 11.0547
    endloop
  endfacet
  facet normal 0 1 0
    outer loop
      vertex 8.87892 5 11.0547
      vertex 35.5 5 2.5
      vertex 8.67705 5 10.7366
    endloop
  endfacet
  facet normal 0 1 0
    outer loop
      vertex 8.67705 5 10.7366
      vertex 35.5 5 2.5
      vertex 8.43691 5 10.4464
    endloop
  endfacet
  facet normal 0 1 0
    outer loop
      vertex 8.43691 5 10.4464
      vertex 35.5 5 2.5
      vertex 8.16227 5 10.1885
    endloop
  endfacet
  facet normal 0 1 0
    outer loop
      vertex 2.5 5 2.5
      vertex 8.16227 5 10.1885
      vertex 35.5 5 2.5
    endloop
  endfacet
  facet normal 0 1 0
    outer loop
      vertex 6.81214 5 9.55314
      vertex 2.5 5 2.5
      vertex 6.43837 5 9.50592
    endloop
  endfacet
  facet normal 0 1 0
    outer loop
      vertex 7.17705 5 9.64683
      vertex 2.5 5 2.5
      vertex 6.81214 5 9.55314
    endloop
  endfacet
  facet normal 0 1 0
    outer loop
      vertex 7.52734 5 9.78552
      vertex 2.5 5 2.5
      vertex 7.17705 5 9.64683
    endloop
  endfacet
  facet normal 0 1 0
    outer loop
      vertex 7.85748 5 9.96702
      vertex 2.5 5 2.5
      vertex 7.52734 5 9.78552
    endloop
  endfacet
  facet normal 0 1 0
    outer loop
      vertex 8.16227 5 10.1885
      vertex 2.5 5 2.5
      vertex 7.85748 5 9.96702
    endloop
  endfacet
  facet normal 0 1 -0
    outer loop
      vertex 6.06163 5 15.4941
      vertex 2.5 5 22.5
      vertex 6.43837 5 15.4941
    endloop
  endfacet
  facet normal 0 1 -0
    outer loop
      vertex 5.68786 5 15.4469
      vertex 2.5 5 22.5
      vertex 6.06163 5 15.4941
    endloop
  endfacet
  facet normal 0 1 -0
    outer loop
      vertex 5.32295 5 15.3532
      vertex 2.5 5 22.5
      vertex 5.68786 5 15.4469
    endloop
  endfacet
  facet normal 0 1 -0
    outer loop
      vertex 4.97266 5 15.2145
      vertex 2.5 5 22.5
      vertex 5.32295 5 15.3532
    endloop
  endfacet
  facet normal 0 1 -0
    outer loop
      vertex 4.64252 5 15.033
      vertex 2.5 5 22.5
      vertex 4.97266 5 15.2145
    endloop
  endfacet
  facet normal 0 1 -0
    outer loop
      vertex 4.33773 5 14.8115
      vertex 2.5 5 22.5
      vertex 4.64252 5 15.033
    endloop
  endfacet
  facet normal 0 1 -0
    outer loop
      vertex 4.06309 5 14.5536
      vertex 2.5 5 22.5
      vertex 4.33773 5 14.8115
    endloop
  endfacet
  facet normal 0 1 -0
    outer loop
      vertex 3.82295 5 14.2634
      vertex 2.5 5 22.5
      vertex 4.06309 5 14.5536
    endloop
  endfacet
  facet normal 0 1 -0
    outer loop
      vertex 3.62108 5 13.9453
      vertex 2.5 5 22.5
      vertex 3.82295 5 14.2634
    endloop
  endfacet
  facet normal 0 1 -0
    outer loop
      vertex 3.46067 5 13.6044
      vertex 2.5 5 22.5
      vertex 3.62108 5 13.9453
    endloop
  endfacet
  facet normal 0 1 -0
    outer loop
      vertex 3.34425 5 13.2461
      vertex 2.5 5 22.5
      vertex 3.46067 5 13.6044
    endloop
  endfacet
  facet normal 0 1 -0
    outer loop
      vertex 3.27366 5 12.876
      vertex 2.5 5 22.5
      vertex 3.34425 5 13.2461
    endloop
  endfacet
  facet normal 0 1 -0
    outer loop
      vertex 3.25 5 12.5
      vertex 2.5 5 22.5
      vertex 3.27366 5 12.876
    endloop
  endfacet
  facet normal 0 1 0
    outer loop
      vertex 2.5 5 2.5
      vertex 3.25 5 12.5
      vertex 3.27366 5 12.124
    endloop
  endfacet
  facet normal 0 1 0
    outer loop
      vertex 6.43837 5 9.50592
      vertex 2.5 5 2.5
      vertex 6.06163 5 9.50592
    endloop
  endfacet
  facet normal 0 1 0
    outer loop
      vertex 3.25 5 12.5
      vertex 2.5 5 2.5
      vertex 2.5 5 22.5
    endloop
  endfacet
  facet normal 0 1 0
    outer loop
      vertex 3.34425 5 11.7539
      vertex 2.5 5 2.5
      vertex 3.27366 5 12.124
    endloop
  endfacet
  facet normal 0 1 0
    outer loop
      vertex 3.46067 5 11.3956
      vertex 2.5 5 2.5
      vertex 3.34425 5 11.7539
    endloop
  endfacet
  facet normal 0 1 0
    outer loop
      vertex 3.62108 5 11.0547
      vertex 2.5 5 2.5
      vertex 3.46067 5 11.3956
    endloop
  endfacet
  facet normal 0 1 0
    outer loop
      vertex 3.82295 5 10.7366
      vertex 2.5 5 2.5
      vertex 3.62108 5 11.0547
    endloop
  endfacet
  facet normal 0 1 0
    outer loop
      vertex 4.06309 5 10.4464
      vertex 2.5 5 2.5
      vertex 3.82295 5 10.7366
    endloop
  endfacet
  facet normal 0 1 0
    outer loop
      vertex 4.33773 5 10.1885
      vertex 2.5 5 2.5
      vertex 4.06309 5 10.4464
    endloop
  endfacet
  facet normal 0 1 0
    outer loop
      vertex 4.64252 5 9.96702
      vertex 2.5 5 2.5
      vertex 4.33773 5 10.1885
    endloop
  endfacet
  facet normal 0 1 0
    outer loop
      vertex 4.97266 5 9.78552
      vertex 2.5 5 2.5
      vertex 4.64252 5 9.96702
    endloop
  endfacet
  facet normal 0 1 0
    outer loop
      vertex 5.32295 5 9.64683
      vertex 2.5 5 2.5
      vertex 4.97266 5 9.78552
    endloop
  endfacet
  facet normal 0 1 0
    outer loop
      vertex 5.68786 5 9.55314
      vertex 2.5 5 2.5
      vertex 5.32295 5 9.64683
    endloop
  endfacet
  facet normal 0 1 0
    outer loop
      vertex 6.06163 5 9.50592
      vertex 2.5 5 2.5
      vertex 5.68786 5 9.55314
    endloop
  endfacet
  facet normal -0.684541 0 0.728974
    outer loop
      vertex 8.16227 5 10.1885
      vertex 8.43691 0 10.4464
      vertex 8.43691 5 10.4464
    endloop
  endfacet
  facet normal -0.684541 0 0.728974
    outer loop
      vertex 8.43691 0 10.4464
      vertex 8.16227 5 10.1885
      vertex 8.16227 0 10.1885
    endloop
  endfacet
  facet normal -0.684541 0 -0.728974
    outer loop
      vertex 8.16227 0 14.8115
      vertex 8.43691 5 14.5536
      vertex 8.43691 0 14.5536
    endloop
  endfacet
  facet normal -0.684541 0 -0.728974
    outer loop
      vertex 8.43691 5 14.5536
      vertex 8.16227 0 14.8115
      vertex 8.16227 5 14.8115
    endloop
  endfacet
  facet normal 0.587884 0 -0.808945
    outer loop
      vertex 4.33773 0 14.8115
      vertex 4.64252 5 15.033
      vertex 4.64252 0 15.033
    endloop
  endfacet
  facet normal 0.587884 0 -0.808945
    outer loop
      vertex 4.64252 5 15.033
      vertex 4.33773 0 14.8115
      vertex 4.33773 5 14.8115
    endloop
  endfacet
  facet normal -0.998026 0 0.0628013
    outer loop
      vertex 9.22634 0 12.124
      vertex 9.25 5 12.5
      vertex 9.22634 5 12.124
    endloop
  endfacet
  facet normal -0.998026 0 0.0628013
    outer loop
      vertex 9.25 5 12.5
      vertex 9.22634 0 12.124
      vertex 9.25 0 12.5
    endloop
  endfacet
  facet normal -0.368125 0 0.929776
    outer loop
      vertex 7.17705 5 9.64683
      vertex 7.52734 0 9.78552
      vertex 7.52734 5 9.78552
    endloop
  endfacet
  facet normal -0.368125 0 0.929776
    outer loop
      vertex 7.52734 0 9.78552
      vertex 7.17705 5 9.64683
      vertex 7.17705 0 9.64683
    endloop
  endfacet
  facet normal -0.248683 0 0.968585
    outer loop
      vertex 6.81214 5 9.55314
      vertex 7.17705 0 9.64683
      vertex 7.17705 5 9.64683
    endloop
  endfacet
  facet normal -0.248683 0 0.968585
    outer loop
      vertex 7.17705 0 9.64683
      vertex 6.81214 5 9.55314
      vertex 6.81214 0 9.55314
    endloop
  endfacet
  facet normal 0.684541 0 0.728974
    outer loop
      vertex 4.06309 5 10.4464
      vertex 4.33773 0 10.1885
      vertex 4.33773 5 10.1885
    endloop
  endfacet
  facet normal 0.684541 0 0.728974
    outer loop
      vertex 4.33773 0 10.1885
      vertex 4.06309 5 10.4464
      vertex 4.06309 0 10.4464
    endloop
  endfacet
  facet normal 0.125286 0 -0.992121
    outer loop
      vertex 5.68786 0 15.4469
      vertex 6.06163 5 15.4941
      vertex 6.06163 0 15.4941
    endloop
  endfacet
  facet normal 0.125286 0 -0.992121
    outer loop
      vertex 6.06163 5 15.4941
      vertex 5.68786 0 15.4469
      vertex 5.68786 5 15.4469
    endloop
  endfacet
  facet normal -0.998026 0 -0.0628013
    outer loop
      vertex 9.25 0 12.5
      vertex 9.22634 5 12.876
      vertex 9.25 5 12.5
    endloop
  endfacet
  facet normal -0.998026 -0 -0.0628013
    outer loop
      vertex 9.22634 5 12.876
      vertex 9.25 0 12.5
      vertex 9.22634 0 12.876
    endloop
  endfacet
  facet normal 0.481762 0 -0.876302
    outer loop
      vertex 4.64252 0 15.033
      vertex 4.97266 5 15.2145
      vertex 4.97266 0 15.2145
    endloop
  endfacet
  facet normal 0.481762 0 -0.876302
    outer loop
      vertex 4.97266 5 15.2145
      vertex 4.64252 0 15.033
      vertex 4.64252 5 15.033
    endloop
  endfacet
  facet normal 0.481762 0 0.876302
    outer loop
      vertex 4.64252 5 9.96702
      vertex 4.97266 0 9.78552
      vertex 4.97266 5 9.78552
    endloop
  endfacet
  facet normal 0.481762 0 0.876302
    outer loop
      vertex 4.97266 0 9.78552
      vertex 4.64252 5 9.96702
      vertex 4.64252 0 9.96702
    endloop
  endfacet
  facet normal -0.982292 0 -0.187355
    outer loop
      vertex 9.22634 0 12.876
      vertex 9.15575 5 13.2461
      vertex 9.22634 5 12.876
    endloop
  endfacet
  facet normal -0.982292 -0 -0.187355
    outer loop
      vertex 9.15575 5 13.2461
      vertex 9.22634 0 12.876
      vertex 9.15575 0 13.2461
    endloop
  endfacet
  facet normal 0.770428 0 -0.637528
    outer loop
      vertex 4.06309 0 14.5536
      vertex 3.82295 5 14.2634
      vertex 4.06309 5 14.5536
    endloop
  endfacet
  facet normal 0.770428 0 -0.637528
    outer loop
      vertex 3.82295 5 14.2634
      vertex 4.06309 0 14.5536
      vertex 3.82295 0 14.2634
    endloop
  endfacet
  facet normal 0.248707 0 -0.968579
    outer loop
      vertex 5.32295 0 15.3532
      vertex 5.68786 5 15.4469
      vertex 5.68786 0 15.4469
    endloop
  endfacet
  facet normal 0.248707 0 -0.968579
    outer loop
      vertex 5.68786 5 15.4469
      vertex 5.32295 0 15.3532
      vertex 5.32295 5 15.3532
    endloop
  endfacet
  facet normal 0.904833 -0 0.425768
    outer loop
      vertex 3.46067 0 11.3956
      vertex 3.62108 5 11.0547
      vertex 3.46067 5 11.3956
    endloop
  endfacet
  facet normal 0.904833 0 0.425768
    outer loop
      vertex 3.62108 5 11.0547
      vertex 3.46067 0 11.3956
      vertex 3.62108 0 11.0547
    endloop
  endfacet
  facet normal -0.368148 0 -0.929767
    outer loop
      vertex 7.17705 0 15.3532
      vertex 7.52734 5 15.2145
      vertex 7.52734 0 15.2145
    endloop
  endfacet
  facet normal -0.368148 0 -0.929767
    outer loop
      vertex 7.52734 5 15.2145
      vertex 7.17705 0 15.3532
      vertex 7.17705 5 15.3532
    endloop
  endfacet
  facet normal -0.951056 0 0.30902
    outer loop
      vertex 9.03933 0 11.3956
      vertex 9.15575 5 11.7539
      vertex 9.03933 5 11.3956
    endloop
  endfacet
  facet normal -0.951056 0 0.30902
    outer loop
      vertex 9.15575 5 11.7539
      vertex 9.03933 0 11.3956
      vertex 9.15575 0 11.7539
    endloop
  endfacet
  facet normal -0 0 1
    outer loop
      vertex 6.06163 5 9.50592
      vertex 6.43837 0 9.50592
      vertex 6.43837 5 9.50592
    endloop
  endfacet
  facet normal 0 0 1
    outer loop
      vertex 6.43837 0 9.50592
      vertex 6.06163 5 9.50592
      vertex 6.06163 0 9.50592
    endloop
  endfacet
  facet normal -0.844331 0 0.535822
    outer loop
      vertex 8.67705 0 10.7366
      vertex 8.87892 5 11.0547
      vertex 8.67705 5 10.7366
    endloop
  endfacet
  facet normal -0.844331 0 0.535822
    outer loop
      vertex 8.87892 5 11.0547
      vertex 8.67705 0 10.7366
      vertex 8.87892 0 11.0547
    endloop
  endfacet
  facet normal 0.982292 0 -0.187355
    outer loop
      vertex 3.34425 0 13.2461
      vertex 3.27366 5 12.876
      vertex 3.34425 5 13.2461
    endloop
  endfacet
  facet normal 0.982292 0 -0.187355
    outer loop
      vertex 3.27366 5 12.876
      vertex 3.34425 0 13.2461
      vertex 3.27366 0 12.876
    endloop
  endfacet
  facet normal -0.481762 0 -0.876302
    outer loop
      vertex 7.52734 0 15.2145
      vertex 7.85748 5 15.033
      vertex 7.85748 0 15.033
    endloop
  endfacet
  facet normal -0.481762 0 -0.876302
    outer loop
      vertex 7.85748 5 15.033
      vertex 7.52734 0 15.2145
      vertex 7.52734 5 15.2145
    endloop
  endfacet
  facet normal -0.844331 0 -0.535822
    outer loop
      vertex 8.87892 0 13.9453
      vertex 8.67705 5 14.2634
      vertex 8.87892 5 13.9453
    endloop
  endfacet
  facet normal -0.844331 -0 -0.535822
    outer loop
      vertex 8.67705 5 14.2634
      vertex 8.87892 0 13.9453
      vertex 8.67705 0 14.2634
    endloop
  endfacet
  facet normal 0.368148 0 -0.929767
    outer loop
      vertex 4.97266 0 15.2145
      vertex 5.32295 5 15.3532
      vertex 5.32295 0 15.3532
    endloop
  endfacet
  facet normal 0.368148 0 -0.929767
    outer loop
      vertex 5.32295 5 15.3532
      vertex 4.97266 0 15.2145
      vertex 4.97266 5 15.2145
    endloop
  endfacet
  facet normal 0.125338 0 0.992114
    outer loop
      vertex 5.68786 5 9.55314
      vertex 6.06163 0 9.50592
      vertex 6.06163 5 9.50592
    endloop
  endfacet
  facet normal 0.125338 0 0.992114
    outer loop
      vertex 6.06163 0 9.50592
      vertex 5.68786 5 9.55314
      vertex 5.68786 0 9.55314
    endloop
  endfacet
  facet normal -0.587884 0 -0.808945
    outer loop
      vertex 7.85748 0 15.033
      vertex 8.16227 5 14.8115
      vertex 8.16227 0 14.8115
    endloop
  endfacet
  facet normal -0.587884 0 -0.808945
    outer loop
      vertex 8.16227 5 14.8115
      vertex 7.85748 0 15.033
      vertex 7.85748 5 15.033
    endloop
  endfacet
  facet normal 0.951056 0 -0.30902
    outer loop
      vertex 3.46067 0 13.6044
      vertex 3.34425 5 13.2461
      vertex 3.46067 5 13.6044
    endloop
  endfacet
  facet normal 0.951056 0 -0.30902
    outer loop
      vertex 3.34425 5 13.2461
      vertex 3.46067 0 13.6044
      vertex 3.34425 0 13.2461
    endloop
  endfacet
  facet normal 0 0 -1
    outer loop
      vertex 6.06163 0 15.4941
      vertex 6.43837 5 15.4941
      vertex 6.43837 0 15.4941
    endloop
  endfacet
  facet normal -0 0 -1
    outer loop
      vertex 6.43837 5 15.4941
      vertex 6.06163 0 15.4941
      vertex 6.06163 5 15.4941
    endloop
  endfacet
  facet normal -0.58785 0 0.80897
    outer loop
      vertex 7.85748 5 9.96702
      vertex 8.16227 0 10.1885
      vertex 8.16227 5 10.1885
    endloop
  endfacet
  facet normal -0.58785 0 0.80897
    outer loop
      vertex 8.16227 0 10.1885
      vertex 7.85748 5 9.96702
      vertex 7.85748 0 9.96702
    endloop
  endfacet
  facet normal 0.248683 0 0.968585
    outer loop
      vertex 5.32295 5 9.64683
      vertex 5.68786 0 9.55314
      vertex 5.68786 5 9.55314
    endloop
  endfacet
  facet normal 0.248683 0 0.968585
    outer loop
      vertex 5.68786 0 9.55314
      vertex 5.32295 5 9.64683
      vertex 5.32295 0 9.64683
    endloop
  endfacet
  facet normal 0.368125 0 0.929776
    outer loop
      vertex 4.97266 5 9.78552
      vertex 5.32295 0 9.64683
      vertex 5.32295 5 9.64683
    endloop
  endfacet
  facet normal 0.368125 0 0.929776
    outer loop
      vertex 5.32295 0 9.64683
      vertex 4.97266 5 9.78552
      vertex 4.97266 0 9.78552
    endloop
  endfacet
  facet normal 0.844331 0 -0.535822
    outer loop
      vertex 3.82295 0 14.2634
      vertex 3.62108 5 13.9453
      vertex 3.82295 5 14.2634
    endloop
  endfacet
  facet normal 0.844331 0 -0.535822
    outer loop
      vertex 3.62108 5 13.9453
      vertex 3.82295 0 14.2634
      vertex 3.62108 0 13.9453
    endloop
  endfacet
  facet normal 0.844331 -0 0.535822
    outer loop
      vertex 3.62108 0 11.0547
      vertex 3.82295 5 10.7366
      vertex 3.62108 5 11.0547
    endloop
  endfacet
  facet normal 0.844331 0 0.535822
    outer loop
      vertex 3.82295 5 10.7366
      vertex 3.62108 0 11.0547
      vertex 3.82295 0 10.7366
    endloop
  endfacet
  facet normal 0.998026 -0 0.0628013
    outer loop
      vertex 3.25 0 12.5
      vertex 3.27366 5 12.124
      vertex 3.25 5 12.5
    endloop
  endfacet
  facet normal 0.998026 0 0.0628013
    outer loop
      vertex 3.27366 5 12.124
      vertex 3.25 0 12.5
      vertex 3.27366 0 12.124
    endloop
  endfacet
  facet normal -0.770428 0 0.637528
    outer loop
      vertex 8.43691 0 10.4464
      vertex 8.67705 5 10.7366
      vertex 8.43691 5 10.4464
    endloop
  endfacet
  facet normal -0.770428 0 0.637528
    outer loop
      vertex 8.67705 5 10.7366
      vertex 8.43691 0 10.4464
      vertex 8.67705 0 10.7366
    endloop
  endfacet
  facet normal -0.904833 0 0.425768
    outer loop
      vertex 8.87892 0 11.0547
      vertex 9.03933 5 11.3956
      vertex 8.87892 5 11.0547
    endloop
  endfacet
  facet normal -0.904833 0 0.425768
    outer loop
      vertex 9.03933 5 11.3956
      vertex 8.87892 0 11.0547
      vertex 9.03933 0 11.3956
    endloop
  endfacet
  facet normal 0.684541 0 -0.728974
    outer loop
      vertex 4.06309 0 14.5536
      vertex 4.33773 5 14.8115
      vertex 4.33773 0 14.8115
    endloop
  endfacet
  facet normal 0.684541 0 -0.728974
    outer loop
      vertex 4.33773 5 14.8115
      vertex 4.06309 0 14.5536
      vertex 4.06309 5 14.5536
    endloop
  endfacet
  facet normal -0.770428 0 -0.637528
    outer loop
      vertex 8.67705 0 14.2634
      vertex 8.43691 5 14.5536
      vertex 8.67705 5 14.2634
    endloop
  endfacet
  facet normal -0.770428 -0 -0.637528
    outer loop
      vertex 8.43691 5 14.5536
      vertex 8.67705 0 14.2634
      vertex 8.43691 0 14.5536
    endloop
  endfacet
  facet normal -0.982292 0 0.187355
    outer loop
      vertex 9.15575 0 11.7539
      vertex 9.22634 5 12.124
      vertex 9.15575 5 11.7539
    endloop
  endfacet
  facet normal -0.982292 0 0.187355
    outer loop
      vertex 9.22634 5 12.124
      vertex 9.15575 0 11.7539
      vertex 9.22634 0 12.124
    endloop
  endfacet
  facet normal -0.951056 0 -0.30902
    outer loop
      vertex 9.15575 0 13.2461
      vertex 9.03933 5 13.6044
      vertex 9.15575 5 13.2461
    endloop
  endfacet
  facet normal -0.951056 -0 -0.30902
    outer loop
      vertex 9.03933 5 13.6044
      vertex 9.15575 0 13.2461
      vertex 9.03933 0 13.6044
    endloop
  endfacet
  facet normal 0.982292 -0 0.187355
    outer loop
      vertex 3.27366 0 12.124
      vertex 3.34425 5 11.7539
      vertex 3.27366 5 12.124
    endloop
  endfacet
  facet normal 0.982292 0 0.187355
    outer loop
      vertex 3.34425 5 11.7539
      vertex 3.27366 0 12.124
      vertex 3.34425 0 11.7539
    endloop
  endfacet
  facet normal -0.481762 0 0.876302
    outer loop
      vertex 7.52734 5 9.78552
      vertex 7.85748 0 9.96702
      vertex 7.85748 5 9.96702
    endloop
  endfacet
  facet normal -0.481762 0 0.876302
    outer loop
      vertex 7.85748 0 9.96702
      vertex 7.52734 5 9.78552
      vertex 7.52734 0 9.78552
    endloop
  endfacet
  facet normal -0.904833 0 -0.425768
    outer loop
      vertex 9.03933 0 13.6044
      vertex 8.87892 5 13.9453
      vertex 9.03933 5 13.6044
    endloop
  endfacet
  facet normal -0.904833 -0 -0.425768
    outer loop
      vertex 8.87892 5 13.9453
      vertex 9.03933 0 13.6044
      vertex 8.87892 0 13.9453
    endloop
  endfacet
  facet normal 0.998026 0 -0.0628013
    outer loop
      vertex 3.27366 0 12.876
      vertex 3.25 5 12.5
      vertex 3.27366 5 12.876
    endloop
  endfacet
  facet normal 0.998026 0 -0.0628013
    outer loop
      vertex 3.25 5 12.5
      vertex 3.27366 0 12.876
      vertex 3.25 0 12.5
    endloop
  endfacet
  facet normal -0.125338 0 0.992114
    outer loop
      vertex 6.43837 5 9.50592
      vertex 6.81214 0 9.55314
      vertex 6.81214 5 9.55314
    endloop
  endfacet
  facet normal -0.125338 0 0.992114
    outer loop
      vertex 6.81214 0 9.55314
      vertex 6.43837 5 9.50592
      vertex 6.43837 0 9.50592
    endloop
  endfacet
  facet normal 0.951056 -0 0.30902
    outer loop
      vertex 3.34425 0 11.7539
      vertex 3.46067 5 11.3956
      vertex 3.34425 5 11.7539
    endloop
  endfacet
  facet normal 0.951056 0 0.30902
    outer loop
      vertex 3.46067 5 11.3956
      vertex 3.34425 0 11.7539
      vertex 3.46067 0 11.3956
    endloop
  endfacet
  facet normal -0.125286 0 -0.992121
    outer loop
      vertex 6.43837 0 15.4941
      vertex 6.81214 5 15.4469
      vertex 6.81214 0 15.4469
    endloop
  endfacet
  facet normal -0.125286 0 -0.992121
    outer loop
      vertex 6.81214 5 15.4469
      vertex 6.43837 0 15.4941
      vertex 6.43837 5 15.4941
    endloop
  endfacet
  facet normal 0.904833 0 -0.425768
    outer loop
      vertex 3.62108 0 13.9453
      vertex 3.46067 5 13.6044
      vertex 3.62108 5 13.9453
    endloop
  endfacet
  facet normal 0.904833 0 -0.425768
    outer loop
      vertex 3.46067 5 13.6044
      vertex 3.62108 0 13.9453
      vertex 3.46067 0 13.6044
    endloop
  endfacet
  facet normal 0.58785 0 0.80897
    outer loop
      vertex 4.33773 5 10.1885
      vertex 4.64252 0 9.96702
      vertex 4.64252 5 9.96702
    endloop
  endfacet
  facet normal 0.58785 0 0.80897
    outer loop
      vertex 4.64252 0 9.96702
      vertex 4.33773 5 10.1885
      vertex 4.33773 0 10.1885
    endloop
  endfacet
  facet normal -0.248707 0 -0.968579
    outer loop
      vertex 6.81214 0 15.4469
      vertex 7.17705 5 15.3532
      vertex 7.17705 0 15.3532
    endloop
  endfacet
  facet normal -0.248707 0 -0.968579
    outer loop
      vertex 7.17705 5 15.3532
      vertex 6.81214 0 15.4469
      vertex 6.81214 5 15.4469
    endloop
  endfacet
  facet normal 0.770428 -0 0.637528
    outer loop
      vertex 3.82295 0 10.7366
      vertex 4.06309 5 10.4464
      vertex 3.82295 5 10.7366
    endloop
  endfacet
  facet normal 0.770428 0 0.637528
    outer loop
      vertex 4.06309 5 10.4464
      vertex 3.82295 0 10.7366
      vertex 4.06309 0 10.4464
    endloop
  endfacet
endsolid OpenSCAD_Model
