solid OpenSCAD_Model
  facet normal 1 -0 0
    outer loop
      vertex 20 0 20
      vertex 20 10 0
      vertex 20 10 20
    endloop
  endfacet
  facet normal 1 0 0
    outer loop
      vertex 20 10 0
      vertex 20 0 20
      vertex 20 0 0
    endloop
  endfacet
  facet normal -0 0 1
    outer loop
      vertex 0 10 20
      vertex 20 0 20
      vertex 20 10 20
    endloop
  endfacet
  facet normal 0 0 1
    outer loop
      vertex 20 0 20
      vertex 0 10 20
      vertex 0 0 20
    endloop
  endfacet
  facet normal 0 0 -1
    outer loop
      vertex 0 0 0
      vertex 20 10 0
      vertex 20 0 0
    endloop
  endfacet
  facet normal -0 0 -1
    outer loop
      vertex 20 10 0
      vertex 0 0 0
      vertex 0 10 0
    endloop
  endfacet
  facet normal -1 0 0
    outer loop
      vertex 0 0 0
      vertex 0 10 20
      vertex 0 10 0
    endloop
  endfacet
  facet normal -1 -0 0
    outer loop
      vertex 0 10 20
      vertex 0 0 0
      vertex 0 0 20
    endloop
  endfacet
  facet normal 0 1 0
    outer loop
      vertex 20 10 20
      vertex 17.5 10 17.5
      vertex 0 10 20
    endloop
  endfacet
  facet normal 0 1 0
    outer loop
      vertex 20 10 20
      vertex 17.5 10 2.5
      vertex 17.5 10 17.5
    endloop
  endfacet
  facet normal 0 1 0
    outer loop
      vertex 17.5 10 2.5
      vertex 20 10 0
      vertex 2.5 10 2.5
    endloop
  endfacet
  facet normal 0 1 -0
    outer loop
      vertex 20 10 0
      vertex 17.5 10 2.5
      vertex 20 10 20
    endloop
  endfacet
  facet normal 0 1 -0
    outer loop
      vertex 2.5 10 17.5
      vertex 0 10 20
      vertex 17.5 10 17.5
    endloop
  endfacet
  facet normal 0 1 -0
    outer loop
      vertex 2.5 10 2.5
      vertex 0 10 20
      vertex 2.5 10 17.5
    endloop
  endfacet
  facet normal 0 1 0
    outer loop
      vertex 2.5 10 2.5
      vertex 0 10 0
      vertex 0 10 20
    endloop
  endfacet
  facet normal 0 1 0
    outer loop
      vertex 0 10 0
      vertex 2.5 10 2.5
      vertex 20 10 0
    endloop
  endfacet
  facet normal 0 -1 0
    outer loop
      vertex 0 0 0
      vertex 20 0 20
      vertex 0 0 20
    endloop
  endfacet
  facet normal 0 -1 -0
    outer loop
      vertex 20 0 20
      vertex 0 0 0
      vertex 20 0 0
    endloop
  endfacet
  facet normal -1 0 0
    outer loop
      vertex 17.5 5 2.5
      vertex 17.5 10 17.5
      vertex 17.5 10 2.5
    endloop
  endfacet
  facet normal -1 -0 0
    outer loop
      vertex 17.5 10 17.5
      vertex 17.5 5 2.5
      vertex 17.5 5 17.5
    endloop
  endfacet
  facet normal 0 0 -1
    outer loop
      vertex 2.5 5 17.5
      vertex 17.5 10 17.5
      vertex 17.5 5 17.5
    endloop
  endfacet
  facet normal -0 0 -1
    outer loop
      vertex 17.5 10 17.5
      vertex 2.5 5 17.5
      vertex 2.5 10 17.5
    endloop
  endfacet
  facet normal -0 0 1
    outer loop
      vertex 2.5 10 2.5
      vertex 17.5 5 2.5
      vertex 17.5 10 2.5
    endloop
  endfacet
  facet normal 0 0 1
    outer loop
      vertex 17.5 5 2.5
      vertex 2.5 10 2.5
      vertex 2.5 5 2.5
    endloop
  endfacet
  facet normal 1 -0 0
    outer loop
      vertex 2.5 5 17.5
      vertex 2.5 10 2.5
      vertex 2.5 10 17.5
    endloop
  endfacet
  facet normal 1 0 0
    outer loop
      vertex 2.5 10 2.5
      vertex 2.5 5 17.5
      vertex 2.5 5 2.5
    endloop
  endfacet
  facet normal 0 1 -0
    outer loop
      vertex 17.5 5 2.5
      vertex 2.5 5 17.5
      vertex 17.5 5 17.5
    endloop
  endfacet
  facet normal 0 1 0
    outer loop
      vertex 2.5 5 17.5
      vertex 17.5 5 2.5
      vertex 2.5 5 2.5
    endloop
  endfacet
endsolid OpenSCAD_Model
