solid OpenSCAD_Model
  facet normal 1 -0 0
    outer loop
      vertex 14 -5 3
      vertex 14 0 0
      vertex 14 0 3
    endloop
  endfacet
  facet normal 1 0 0
    outer loop
      vertex 14 0 0
      vertex 14 -5 3
      vertex 14 -5 0
    endloop
  endfacet
  facet normal 0 0 1
    outer loop
      vertex 14 0 3
      vertex 12 -1 3
      vertex 14 -5 3
    endloop
  endfacet
  facet normal 0 0 1
    outer loop
      vertex 14 0 3
      vertex 8 -1 3
      vertex 12 -1 3
    endloop
  endfacet
  facet normal 0 0 1
    outer loop
      vertex 8 -1 3
      vertex 6 0 3
      vertex 8 -4 3
    endloop
  endfacet
  facet normal -0 0 1
    outer loop
      vertex 6 0 3
      vertex 8 -1 3
      vertex 14 0 3
    endloop
  endfacet
  facet normal -0 0 1
    outer loop
      vertex 12 -4 3
      vertex 14 -5 3
      vertex 12 -1 3
    endloop
  endfacet
  facet normal -0 0 1
    outer loop
      vertex 8 -4 3
      vertex 14 -5 3
      vertex 12 -4 3
    endloop
  endfacet
  facet normal 0 0 1
    outer loop
      vertex 8 -4 3
      vertex 6 -5 3
      vertex 14 -5 3
    endloop
  endfacet
  facet normal 0 0 1
    outer loop
      vertex 6 -5 3
      vertex 8 -4 3
      vertex 6 0 3
    endloop
  endfacet
  facet normal 0 0 -1
    outer loop
      vertex 14 -5 0
      vertex 12 -4 0
      vertex 14 0 0
    endloop
  endfacet
  facet normal 0 0 -1
    outer loop
      vertex 14 -5 0
      vertex 8 -4 0
      vertex 12 -4 0
    endloop
  endfacet
  facet normal -0 0 -1
    outer loop
      vertex 8 -4 0
      vertex 6 -5 0
      vertex 8 -1 0
    endloop
  endfacet
  facet normal 0 0 -1
    outer loop
      vertex 6 -5 0
      vertex 8 -4 0
      vertex 14 -5 0
    endloop
  endfacet
  facet normal 0 0 -1
    outer loop
      vertex 14 0 0
      vertex 20 10 0
      vertex 20 0 0
    endloop
  endfacet
  facet normal 0 0 -1
    outer loop
      vertex 12 -1 0
      vertex 14 0 0
      vertex 12 -4 0
    endloop
  endfacet
  facet normal 0 0 -1
    outer loop
      vertex 6 0 0
      vertex 14 0 0
      vertex 12 -1 0
    endloop
  endfacet
  facet normal 0 0 -1
    outer loop
      vertex 6 0 0
      vertex 12 -1 0
      vertex 8 -1 0
    endloop
  endfacet
  facet normal 0 0 -1
    outer loop
      vertex 6 0 0
      vertex 8 -1 0
      vertex 6 -5 0
    endloop
  endfacet
  facet normal 0 0 -1
    outer loop
      vertex 14 0 0
      vertex 6 0 0
      vertex 20 10 0
    endloop
  endfacet
  facet normal 0 0 -1
    outer loop
      vertex 0 10 0
      vertex 6 0 0
      vertex 0 0 0
    endloop
  endfacet
  facet normal 0 0 -1
    outer loop
      vertex 6 0 0
      vertex 0 10 0
      vertex 20 10 0
    endloop
  endfacet
  facet normal -1 0 0
    outer loop
      vertex 6 -5 0
      vertex 6 0 3
      vertex 6 0 0
    endloop
  endfacet
  facet normal -1 -0 0
    outer loop
      vertex 6 0 3
      vertex 6 -5 0
      vertex 6 -5 3
    endloop
  endfacet
  facet normal 0 -1 0
    outer loop
      vertex 0 0 20
      vertex 6 0 17
      vertex 6 0 20
    endloop
  endfacet
  facet normal 0 -1 0
    outer loop
      vertex 5.06279 0 10.998
      vertex 6 0 17
      vertex 4.93721 0 10.998
    endloop
  endfacet
  facet normal 0 -1 0
    outer loop
      vertex 4.36258 0 10.7705
      vertex 6 0 17
      vertex 0 0 20
    endloop
  endfacet
  facet normal 0 -1 0
    outer loop
      vertex 6 0 17
      vertex 4.81262 0 10.9823
      vertex 4.93721 0 10.998
    endloop
  endfacet
  facet normal 0 -1 0
    outer loop
      vertex 6 0 17
      vertex 4.69098 0 10.9511
      vertex 4.81262 0 10.9823
    endloop
  endfacet
  facet normal 0 -1 0
    outer loop
      vertex 6 0 17
      vertex 4.57422 0 10.9048
      vertex 4.69098 0 10.9511
    endloop
  endfacet
  facet normal 0 -1 0
    outer loop
      vertex 6 0 17
      vertex 4.46417 0 10.8443
      vertex 4.57422 0 10.9048
    endloop
  endfacet
  facet normal 0 -1 0
    outer loop
      vertex 6 0 17
      vertex 4.36258 0 10.7705
      vertex 4.46417 0 10.8443
    endloop
  endfacet
  facet normal 0 -1 0
    outer loop
      vertex 0 0 20
      vertex 4.27103 0 10.6845
      vertex 4.36258 0 10.7705
    endloop
  endfacet
  facet normal 0 -1 0
    outer loop
      vertex 0 0 20
      vertex 4.19098 0 10.5878
      vertex 4.27103 0 10.6845
    endloop
  endfacet
  facet normal 0 -1 0
    outer loop
      vertex 0 0 20
      vertex 4.12369 0 10.4818
      vertex 4.19098 0 10.5878
    endloop
  endfacet
  facet normal 0 -1 0
    outer loop
      vertex 0 0 20
      vertex 4.07022 0 10.3681
      vertex 4.12369 0 10.4818
    endloop
  endfacet
  facet normal 0 -1 0
    outer loop
      vertex 0 0 20
      vertex 4.03142 0 10.2487
      vertex 4.07022 0 10.3681
    endloop
  endfacet
  facet normal 0 -1 0
    outer loop
      vertex 0 0 20
      vertex 4.00788 0 10.1253
      vertex 4.03142 0 10.2487
    endloop
  endfacet
  facet normal 0 -1 0
    outer loop
      vertex 0 0 20
      vertex 4 0 10
      vertex 4.00788 0 10.1253
    endloop
  endfacet
  facet normal 0 -1 0
    outer loop
      vertex 0 0 0
      vertex 4 0 10
      vertex 0 0 20
    endloop
  endfacet
  facet normal 0 -1 -0
    outer loop
      vertex 4 0 10
      vertex 0 0 0
      vertex 4.00788 0 9.87467
    endloop
  endfacet
  facet normal 0 -1 -0
    outer loop
      vertex 4.00788 0 9.87467
      vertex 0 0 0
      vertex 4.03142 0 9.75131
    endloop
  endfacet
  facet normal 0 -1 0
    outer loop
      vertex 4.93721 0 9.00197
      vertex 6 0 3
      vertex 5.06279 0 9.00197
    endloop
  endfacet
  facet normal 0 -1 0
    outer loop
      vertex 4.81262 0 9.01771
      vertex 6 0 3
      vertex 4.93721 0 9.00197
    endloop
  endfacet
  facet normal 0 -1 0
    outer loop
      vertex 4.69098 0 9.04894
      vertex 6 0 3
      vertex 4.81262 0 9.01771
    endloop
  endfacet
  facet normal 0 -1 0
    outer loop
      vertex 4.57422 0 9.09517
      vertex 6 0 3
      vertex 4.69098 0 9.04894
    endloop
  endfacet
  facet normal 0 -1 0
    outer loop
      vertex 4.46417 0 9.15567
      vertex 6 0 3
      vertex 4.57422 0 9.09517
    endloop
  endfacet
  facet normal 0 -1 0
    outer loop
      vertex 4.36258 0 9.22949
      vertex 6 0 3
      vertex 4.46417 0 9.15567
    endloop
  endfacet
  facet normal 0 -1 0
    outer loop
      vertex 0 0 0
      vertex 4.36258 0 9.22949
      vertex 4.27103 0 9.31545
    endloop
  endfacet
  facet normal 0 -1 0
    outer loop
      vertex 0 0 0
      vertex 4.27103 0 9.31545
      vertex 4.19098 0 9.41221
    endloop
  endfacet
  facet normal 0 -1 0
    outer loop
      vertex 0 0 0
      vertex 4.19098 0 9.41221
      vertex 4.12369 0 9.51825
    endloop
  endfacet
  facet normal 0 -1 0
    outer loop
      vertex 0 0 0
      vertex 4.12369 0 9.51825
      vertex 4.07022 0 9.63188
    endloop
  endfacet
  facet normal 0 -1 -0
    outer loop
      vertex 4.03142 0 9.75131
      vertex 0 0 0
      vertex 4.07022 0 9.63188
    endloop
  endfacet
  facet normal 0 -1 -0
    outer loop
      vertex 4.36258 0 9.22949
      vertex 0 0 0
      vertex 6 0 3
    endloop
  endfacet
  facet normal 0 -1 -0
    outer loop
      vertex 6 0 3
      vertex 0 0 0
      vertex 6 0 0
    endloop
  endfacet
  facet normal 0 -1 0
    outer loop
      vertex 14 0 17
      vertex 20 0 20
      vertex 14 0 20
    endloop
  endfacet
  facet normal 0 -1 0
    outer loop
      vertex 5.18738 0 10.9823
      vertex 6 0 17
      vertex 5.06279 0 10.998
    endloop
  endfacet
  facet normal 0 -1 0
    outer loop
      vertex 5.30902 0 10.9511
      vertex 6 0 17
      vertex 5.18738 0 10.9823
    endloop
  endfacet
  facet normal 0 -1 0
    outer loop
      vertex 5.42578 0 10.9048
      vertex 6 0 17
      vertex 5.30902 0 10.9511
    endloop
  endfacet
  facet normal 0 -1 0
    outer loop
      vertex 5.53583 0 10.8443
      vertex 6 0 17
      vertex 5.42578 0 10.9048
    endloop
  endfacet
  facet normal 0 -1 0
    outer loop
      vertex 5.63742 0 10.7705
      vertex 6 0 17
      vertex 5.53583 0 10.8443
    endloop
  endfacet
  facet normal 0 -1 0
    outer loop
      vertex 5.72897 0 10.6845
      vertex 6 0 17
      vertex 5.63742 0 10.7705
    endloop
  endfacet
  facet normal 0 -1 0
    outer loop
      vertex 5.80902 0 10.5878
      vertex 6 0 17
      vertex 5.72897 0 10.6845
    endloop
  endfacet
  facet normal 0 -1 -0
    outer loop
      vertex 6 0 17
      vertex 5.80902 0 10.5878
      vertex 14 0 17
    endloop
  endfacet
  facet normal 0 -1 0
    outer loop
      vertex 5.87631 0 10.4818
      vertex 14 0 17
      vertex 5.80902 0 10.5878
    endloop
  endfacet
  facet normal 0 -1 0
    outer loop
      vertex 5.92978 0 10.3681
      vertex 14 0 17
      vertex 5.87631 0 10.4818
    endloop
  endfacet
  facet normal 0 -1 0
    outer loop
      vertex 5.96858 0 10.2487
      vertex 14 0 17
      vertex 5.92978 0 10.3681
    endloop
  endfacet
  facet normal 0 -1 0
    outer loop
      vertex 5.99211 0 10.1253
      vertex 14 0 17
      vertex 5.96858 0 10.2487
    endloop
  endfacet
  facet normal 0 -1 0
    outer loop
      vertex 6 0 10
      vertex 14 0 17
      vertex 5.99211 0 10.1253
    endloop
  endfacet
  facet normal 0 -1 -0
    outer loop
      vertex 14 0 17
      vertex 6 0 10
      vertex 14 0 3
    endloop
  endfacet
  facet normal 0 -1 0
    outer loop
      vertex 14 0 3
      vertex 6 0 10
      vertex 5.99211 0 9.87467
    endloop
  endfacet
  facet normal 0 -1 0
    outer loop
      vertex 14 0 3
      vertex 5.99211 0 9.87467
      vertex 5.96858 0 9.75131
    endloop
  endfacet
  facet normal 0 -1 0
    outer loop
      vertex 14 0 3
      vertex 5.96858 0 9.75131
      vertex 5.92978 0 9.63188
    endloop
  endfacet
  facet normal 0 -1 0
    outer loop
      vertex 14 0 3
      vertex 5.92978 0 9.63188
      vertex 5.87631 0 9.51825
    endloop
  endfacet
  facet normal 0 -1 0
    outer loop
      vertex 14 0 3
      vertex 5.87631 0 9.51825
      vertex 5.80902 0 9.41221
    endloop
  endfacet
  facet normal 0 -1 0
    outer loop
      vertex 6 0 3
      vertex 5.80902 0 9.41221
      vertex 5.72897 0 9.31545
    endloop
  endfacet
  facet normal 0 -1 0
    outer loop
      vertex 6 0 3
      vertex 5.72897 0 9.31545
      vertex 5.63742 0 9.22949
    endloop
  endfacet
  facet normal 0 -1 0
    outer loop
      vertex 6 0 3
      vertex 5.18738 0 9.01771
      vertex 5.06279 0 9.00197
    endloop
  endfacet
  facet normal 0 -1 0
    outer loop
      vertex 6 0 3
      vertex 5.30902 0 9.04894
      vertex 5.18738 0 9.01771
    endloop
  endfacet
  facet normal 0 -1 0
    outer loop
      vertex 6 0 3
      vertex 5.42578 0 9.09517
      vertex 5.30902 0 9.04894
    endloop
  endfacet
  facet normal 0 -1 0
    outer loop
      vertex 6 0 3
      vertex 5.53583 0 9.15567
      vertex 5.42578 0 9.09517
    endloop
  endfacet
  facet normal 0 -1 0
    outer loop
      vertex 6 0 3
      vertex 5.63742 0 9.22949
      vertex 5.53583 0 9.15567
    endloop
  endfacet
  facet normal 0 -1 0
    outer loop
      vertex 5.80902 0 9.41221
      vertex 6 0 3
      vertex 14 0 3
    endloop
  endfacet
  facet normal 0 -1 0
    outer loop
      vertex 14 0 17
      vertex 14 0 3
      vertex 20 0 20
    endloop
  endfacet
  facet normal 0 -1 0
    outer loop
      vertex 20 0 0
      vertex 14 0 3
      vertex 14 0 0
    endloop
  endfacet
  facet normal 0 -1 0
    outer loop
      vertex 14 0 3
      vertex 20 0 0
      vertex 20 0 20
    endloop
  endfacet
  facet normal 0 -1 0
    outer loop
      vertex 6 -5 0
      vertex 14 -5 3
      vertex 6 -5 3
    endloop
  endfacet
  facet normal 0 -1 -0
    outer loop
      vertex 14 -5 3
      vertex 6 -5 0
      vertex 14 -5 0
    endloop
  endfacet
  facet normal -1 0 0
    outer loop
      vertex 12 -4 0
      vertex 12 -1 3
      vertex 12 -1 0
    endloop
  endfacet
  facet normal -1 -0 0
    outer loop
      vertex 12 -1 3
      vertex 12 -4 0
      vertex 12 -4 3
    endloop
  endfacet
  facet normal 1 -0 0
    outer loop
      vertex 8 -4 3
      vertex 8 -1 0
      vertex 8 -1 3
    endloop
  endfacet
  facet normal 1 0 0
    outer loop
      vertex 8 -1 0
      vertex 8 -4 3
      vertex 8 -4 0
    endloop
  endfacet
  facet normal 0 -1 0
    outer loop
      vertex 8 -1 0
      vertex 12 -1 3
      vertex 8 -1 3
    endloop
  endfacet
  facet normal 0 -1 -0
    outer loop
      vertex 12 -1 3
      vertex 8 -1 0
      vertex 12 -1 0
    endloop
  endfacet
  facet normal 0 1 -0
    outer loop
      vertex 12 -4 0
      vertex 8 -4 3
      vertex 12 -4 3
    endloop
  endfacet
  facet normal 0 1 0
    outer loop
      vertex 8 -4 3
      vertex 12 -4 0
      vertex 8 -4 0
    endloop
  endfacet
  facet normal 1 -0 0
    outer loop
      vertex 14 -5 20
      vertex 14 0 17
      vertex 14 0 20
    endloop
  endfacet
  facet normal 1 0 0
    outer loop
      vertex 14 0 17
      vertex 14 -5 20
      vertex 14 -5 17
    endloop
  endfacet
  facet normal 0 0 1
    outer loop
      vertex 20 10 20
      vertex 14 0 20
      vertex 20 0 20
    endloop
  endfacet
  facet normal 0 0 1
    outer loop
      vertex 14 0 20
      vertex 12 -1 20
      vertex 14 -5 20
    endloop
  endfacet
  facet normal 0 0 1
    outer loop
      vertex 6 0 20
      vertex 14 0 20
      vertex 20 10 20
    endloop
  endfacet
  facet normal 0 0 1
    outer loop
      vertex 14 0 20
      vertex 6 0 20
      vertex 12 -1 20
    endloop
  endfacet
  facet normal 0 0 1
    outer loop
      vertex 8 -1 20
      vertex 6 0 20
      vertex 8 -4 20
    endloop
  endfacet
  facet normal 0 0 1
    outer loop
      vertex 12 -1 20
      vertex 6 0 20
      vertex 8 -1 20
    endloop
  endfacet
  facet normal -0 0 1
    outer loop
      vertex 0 10 20
      vertex 6 0 20
      vertex 20 10 20
    endloop
  endfacet
  facet normal 0 0 1
    outer loop
      vertex 6 0 20
      vertex 0 10 20
      vertex 0 0 20
    endloop
  endfacet
  facet normal -0 0 1
    outer loop
      vertex 12 -4 20
      vertex 14 -5 20
      vertex 12 -1 20
    endloop
  endfacet
  facet normal -0 0 1
    outer loop
      vertex 8 -4 20
      vertex 14 -5 20
      vertex 12 -4 20
    endloop
  endfacet
  facet normal 0 0 1
    outer loop
      vertex 8 -4 20
      vertex 6 -5 20
      vertex 14 -5 20
    endloop
  endfacet
  facet normal 0 0 1
    outer loop
      vertex 6 -5 20
      vertex 8 -4 20
      vertex 6 0 20
    endloop
  endfacet
  facet normal 0 0 -1
    outer loop
      vertex 14 -5 17
      vertex 12 -4 17
      vertex 14 0 17
    endloop
  endfacet
  facet normal 0 0 -1
    outer loop
      vertex 14 -5 17
      vertex 8 -4 17
      vertex 12 -4 17
    endloop
  endfacet
  facet normal -0 0 -1
    outer loop
      vertex 8 -4 17
      vertex 6 -5 17
      vertex 8 -1 17
    endloop
  endfacet
  facet normal 0 0 -1
    outer loop
      vertex 6 -5 17
      vertex 8 -4 17
      vertex 14 -5 17
    endloop
  endfacet
  facet normal 0 0 -1
    outer loop
      vertex 12 -1 17
      vertex 14 0 17
      vertex 12 -4 17
    endloop
  endfacet
  facet normal 0 0 -1
    outer loop
      vertex 8 -1 17
      vertex 14 0 17
      vertex 12 -1 17
    endloop
  endfacet
  facet normal 0 0 -1
    outer loop
      vertex 8 -1 17
      vertex 6 0 17
      vertex 14 0 17
    endloop
  endfacet
  facet normal 0 0 -1
    outer loop
      vertex 6 0 17
      vertex 8 -1 17
      vertex 6 -5 17
    endloop
  endfacet
  facet normal -1 0 0
    outer loop
      vertex 6 -5 17
      vertex 6 0 20
      vertex 6 0 17
    endloop
  endfacet
  facet normal -1 -0 0
    outer loop
      vertex 6 0 20
      vertex 6 -5 17
      vertex 6 -5 20
    endloop
  endfacet
  facet normal 0 -1 0
    outer loop
      vertex 6 -5 17
      vertex 14 -5 20
      vertex 6 -5 20
    endloop
  endfacet
  facet normal 0 -1 -0
    outer loop
      vertex 14 -5 20
      vertex 6 -5 17
      vertex 14 -5 17
    endloop
  endfacet
  facet normal -1 0 0
    outer loop
      vertex 12 -4 17
      vertex 12 -1 20
      vertex 12 -1 17
    endloop
  endfacet
  facet normal -1 -0 0
    outer loop
      vertex 12 -1 20
      vertex 12 -4 17
      vertex 12 -4 20
    endloop
  endfacet
  facet normal 1 -0 0
    outer loop
      vertex 8 -4 20
      vertex 8 -1 17
      vertex 8 -1 20
    endloop
  endfacet
  facet normal 1 0 0
    outer loop
      vertex 8 -1 17
      vertex 8 -4 20
      vertex 8 -4 17
    endloop
  endfacet
  facet normal 0 -1 0
    outer loop
      vertex 8 -1 17
      vertex 12 -1 20
      vertex 8 -1 20
    endloop
  endfacet
  facet normal 0 -1 -0
    outer loop
      vertex 12 -1 20
      vertex 8 -1 17
      vertex 12 -1 17
    endloop
  endfacet
  facet normal 0 1 -0
    outer loop
      vertex 12 -4 17
      vertex 8 -4 20
      vertex 12 -4 20
    endloop
  endfacet
  facet normal 0 1 0
    outer loop
      vertex 8 -4 20
      vertex 12 -4 17
      vertex 8 -4 17
    endloop
  endfacet
  facet normal 1 -0 0
    outer loop
      vertex 20 0 20
      vertex 20 10 0
      vertex 20 10 20
    endloop
  endfacet
  facet normal 1 0 0
    outer loop
      vertex 20 10 0
      vertex 20 0 20
      vertex 20 0 0
    endloop
  endfacet
  facet normal -1 0 0
    outer loop
      vertex 0 0 0
      vertex 0 10 20
      vertex 0 10 0
    endloop
  endfacet
  facet normal -1 -0 0
    outer loop
      vertex 0 10 20
      vertex 0 0 0
      vertex 0 0 20
    endloop
  endfacet
  facet normal 0 1 0
    outer loop
      vertex 20 10 20
      vertex 17.5 10 17.5
      vertex 0 10 20
    endloop
  endfacet
  facet normal 0 1 0
    outer loop
      vertex 20 10 20
      vertex 17.5 10 2.5
      vertex 17.5 10 17.5
    endloop
  endfacet
  facet normal 0 1 0
    outer loop
      vertex 17.5 10 2.5
      vertex 20 10 0
      vertex 2.5 10 2.5
    endloop
  endfacet
  facet normal 0 1 -0
    outer loop
      vertex 20 10 0
      vertex 17.5 10 2.5
      vertex 20 10 20
    endloop
  endfacet
  facet normal 0 1 -0
    outer loop
      vertex 2.5 10 17.5
      vertex 0 10 20
      vertex 17.5 10 17.5
    endloop
  endfacet
  facet normal 0 1 -0
    outer loop
      vertex 2.5 10 2.5
      vertex 0 10 20
      vertex 2.5 10 17.5
    endloop
  endfacet
  facet normal 0 1 0
    outer loop
      vertex 2.5 10 2.5
      vertex 0 10 0
      vertex 0 10 20
    endloop
  endfacet
  facet normal 0 1 0
    outer loop
      vertex 0 10 0
      vertex 2.5 10 2.5
      vertex 20 10 0
    endloop
  endfacet
  facet normal -1 0 0
    outer loop
      vertex 17.5 5 2.5
      vertex 17.5 10 17.5
      vertex 17.5 10 2.5
    endloop
  endfacet
  facet normal -1 -0 0
    outer loop
      vertex 17.5 10 17.5
      vertex 17.5 5 2.5
      vertex 17.5 5 17.5
    endloop
  endfacet
  facet normal 0 0 -1
    outer loop
      vertex 2.5 5 17.5
      vertex 17.5 10 17.5
      vertex 17.5 5 17.5
    endloop
  endfacet
  facet normal -0 0 -1
    outer loop
      vertex 17.5 10 17.5
      vertex 2.5 5 17.5
      vertex 2.5 10 17.5
    endloop
  endfacet
  facet normal -0 0 1
    outer loop
      vertex 2.5 10 2.5
      vertex 17.5 5 2.5
      vertex 17.5 10 2.5
    endloop
  endfacet
  facet normal 0 0 1
    outer loop
      vertex 17.5 5 2.5
      vertex 2.5 10 2.5
      vertex 2.5 5 2.5
    endloop
  endfacet
  facet normal 1 -0 0
    outer loop
      vertex 2.5 5 17.5
      vertex 2.5 10 2.5
      vertex 2.5 10 17.5
    endloop
  endfacet
  facet normal 1 0 0
    outer loop
      vertex 2.5 10 2.5
      vertex 2.5 5 17.5
      vertex 2.5 5 2.5
    endloop
  endfacet
  facet normal 0 1 -0
    outer loop
      vertex 5.53583 5 10.8443
      vertex 2.5 5 17.5
      vertex 17.5 5 17.5
    endloop
  endfacet
  facet normal 0 1 0
    outer loop
      vertex 2.5 5 17.5
      vertex 5.18738 5 10.9823
      vertex 5.06279 5 10.998
    endloop
  endfacet
  facet normal 0 1 0
    outer loop
      vertex 2.5 5 17.5
      vertex 5.30902 5 10.9511
      vertex 5.18738 5 10.9823
    endloop
  endfacet
  facet normal 0 1 0
    outer loop
      vertex 2.5 5 17.5
      vertex 5.42578 5 10.9048
      vertex 5.30902 5 10.9511
    endloop
  endfacet
  facet normal 0 1 0
    outer loop
      vertex 2.5 5 17.5
      vertex 5.53583 5 10.8443
      vertex 5.42578 5 10.9048
    endloop
  endfacet
  facet normal 0 1 0
    outer loop
      vertex 17.5 5 17.5
      vertex 5.63742 5 10.7705
      vertex 5.53583 5 10.8443
    endloop
  endfacet
  facet normal 0 1 0
    outer loop
      vertex 17.5 5 17.5
      vertex 5.72897 5 10.6845
      vertex 5.63742 5 10.7705
    endloop
  endfacet
  facet normal 0 1 0
    outer loop
      vertex 17.5 5 17.5
      vertex 5.80902 5 10.5878
      vertex 5.72897 5 10.6845
    endloop
  endfacet
  facet normal 0 1 0
    outer loop
      vertex 17.5 5 17.5
      vertex 5.87631 5 10.4818
      vertex 5.80902 5 10.5878
    endloop
  endfacet
  facet normal 0 1 0
    outer loop
      vertex 17.5 5 17.5
      vertex 5.92978 5 10.3681
      vertex 5.87631 5 10.4818
    endloop
  endfacet
  facet normal 0 1 0
    outer loop
      vertex 17.5 5 17.5
      vertex 5.96858 5 10.2487
      vertex 5.92978 5 10.3681
    endloop
  endfacet
  facet normal 0 1 0
    outer loop
      vertex 17.5 5 17.5
      vertex 5.99211 5 10.1253
      vertex 5.96858 5 10.2487
    endloop
  endfacet
  facet normal 0 1 0
    outer loop
      vertex 17.5 5 17.5
      vertex 6 5 10
      vertex 5.99211 5 10.1253
    endloop
  endfacet
  facet normal 0 1 -0
    outer loop
      vertex 17.5 5 2.5
      vertex 6 5 10
      vertex 17.5 5 17.5
    endloop
  endfacet
  facet normal 0 1 0
    outer loop
      vertex 6 5 10
      vertex 17.5 5 2.5
      vertex 5.99211 5 9.87467
    endloop
  endfacet
  facet normal 0 1 0
    outer loop
      vertex 5.99211 5 9.87467
      vertex 17.5 5 2.5
      vertex 5.96858 5 9.75131
    endloop
  endfacet
  facet normal 0 1 0
    outer loop
      vertex 5.96858 5 9.75131
      vertex 17.5 5 2.5
      vertex 5.92978 5 9.63188
    endloop
  endfacet
  facet normal 0 1 0
    outer loop
      vertex 5.92978 5 9.63188
      vertex 17.5 5 2.5
      vertex 5.87631 5 9.51825
    endloop
  endfacet
  facet normal 0 1 0
    outer loop
      vertex 5.87631 5 9.51825
      vertex 17.5 5 2.5
      vertex 5.80902 5 9.41221
    endloop
  endfacet
  facet normal 0 1 0
    outer loop
      vertex 5.80902 5 9.41221
      vertex 17.5 5 2.5
      vertex 5.72897 5 9.31545
    endloop
  endfacet
  facet normal 0 1 0
    outer loop
      vertex 5.72897 5 9.31545
      vertex 17.5 5 2.5
      vertex 5.63742 5 9.22949
    endloop
  endfacet
  facet normal 0 1 0
    outer loop
      vertex 5.18738 5 9.01771
      vertex 2.5 5 2.5
      vertex 5.06279 5 9.00197
    endloop
  endfacet
  facet normal 0 1 0
    outer loop
      vertex 5.30902 5 9.04894
      vertex 2.5 5 2.5
      vertex 5.18738 5 9.01771
    endloop
  endfacet
  facet normal 0 1 0
    outer loop
      vertex 5.42578 5 9.09517
      vertex 2.5 5 2.5
      vertex 5.30902 5 9.04894
    endloop
  endfacet
  facet normal 0 1 0
    outer loop
      vertex 5.53583 5 9.15567
      vertex 2.5 5 2.5
      vertex 5.42578 5 9.09517
    endloop
  endfacet
  facet normal 0 1 0
    outer loop
      vertex 2.5 5 2.5
      vertex 5.53583 5 9.15567
      vertex 17.5 5 2.5
    endloop
  endfacet
  facet normal 0 1 0
    outer loop
      vertex 5.63742 5 9.22949
      vertex 17.5 5 2.5
      vertex 5.53583 5 9.15567
    endloop
  endfacet
  facet normal 0 1 -0
    outer loop
      vertex 4.93721 5 10.998
      vertex 2.5 5 17.5
      vertex 5.06279 5 10.998
    endloop
  endfacet
  facet normal 0 1 -0
    outer loop
      vertex 4.81262 5 10.9823
      vertex 2.5 5 17.5
      vertex 4.93721 5 10.998
    endloop
  endfacet
  facet normal 0 1 -0
    outer loop
      vertex 4.69098 5 10.9511
      vertex 2.5 5 17.5
      vertex 4.81262 5 10.9823
    endloop
  endfacet
  facet normal 0 1 -0
    outer loop
      vertex 4.57422 5 10.9048
      vertex 2.5 5 17.5
      vertex 4.69098 5 10.9511
    endloop
  endfacet
  facet normal 0 1 -0
    outer loop
      vertex 4.46417 5 10.8443
      vertex 2.5 5 17.5
      vertex 4.57422 5 10.9048
    endloop
  endfacet
  facet normal 0 1 -0
    outer loop
      vertex 4.36258 5 10.7705
      vertex 2.5 5 17.5
      vertex 4.46417 5 10.8443
    endloop
  endfacet
  facet normal 0 1 -0
    outer loop
      vertex 4.27103 5 10.6845
      vertex 2.5 5 17.5
      vertex 4.36258 5 10.7705
    endloop
  endfacet
  facet normal 0 1 -0
    outer loop
      vertex 4.19098 5 10.5878
      vertex 2.5 5 17.5
      vertex 4.27103 5 10.6845
    endloop
  endfacet
  facet normal 0 1 -0
    outer loop
      vertex 4.12369 5 10.4818
      vertex 2.5 5 17.5
      vertex 4.19098 5 10.5878
    endloop
  endfacet
  facet normal 0 1 -0
    outer loop
      vertex 4.07022 5 10.3681
      vertex 2.5 5 17.5
      vertex 4.12369 5 10.4818
    endloop
  endfacet
  facet normal 0 1 -0
    outer loop
      vertex 4.03142 5 10.2487
      vertex 2.5 5 17.5
      vertex 4.07022 5 10.3681
    endloop
  endfacet
  facet normal 0 1 -0
    outer loop
      vertex 4.00788 5 10.1253
      vertex 2.5 5 17.5
      vertex 4.03142 5 10.2487
    endloop
  endfacet
  facet normal 0 1 -0
    outer loop
      vertex 4 5 10
      vertex 2.5 5 17.5
      vertex 4.00788 5 10.1253
    endloop
  endfacet
  facet normal 0 1 0
    outer loop
      vertex 2.5 5 2.5
      vertex 4 5 10
      vertex 4.00788 5 9.87467
    endloop
  endfacet
  facet normal 0 1 0
    outer loop
      vertex 2.5 5 2.5
      vertex 4.00788 5 9.87467
      vertex 4.03142 5 9.75131
    endloop
  endfacet
  facet normal 0 1 0
    outer loop
      vertex 5.06279 5 9.00197
      vertex 2.5 5 2.5
      vertex 4.93721 5 9.00197
    endloop
  endfacet
  facet normal 0 1 0
    outer loop
      vertex 4.93721 5 9.00197
      vertex 2.5 5 2.5
      vertex 4.81262 5 9.01771
    endloop
  endfacet
  facet normal 0 1 0
    outer loop
      vertex 4.81262 5 9.01771
      vertex 2.5 5 2.5
      vertex 4.69098 5 9.04894
    endloop
  endfacet
  facet normal 0 1 0
    outer loop
      vertex 4 5 10
      vertex 2.5 5 2.5
      vertex 2.5 5 17.5
    endloop
  endfacet
  facet normal 0 1 0
    outer loop
      vertex 4.07022 5 9.63188
      vertex 2.5 5 2.5
      vertex 4.03142 5 9.75131
    endloop
  endfacet
  facet normal 0 1 0
    outer loop
      vertex 4.12369 5 9.51825
      vertex 2.5 5 2.5
      vertex 4.07022 5 9.63188
    endloop
  endfacet
  facet normal 0 1 0
    outer loop
      vertex 4.19098 5 9.41221
      vertex 2.5 5 2.5
      vertex 4.12369 5 9.51825
    endloop
  endfacet
  facet normal 0 1 0
    outer loop
      vertex 4.27103 5 9.31545
      vertex 2.5 5 2.5
      vertex 4.19098 5 9.41221
    endloop
  endfacet
  facet normal 0 1 0
    outer loop
      vertex 4.36258 5 9.22949
      vertex 2.5 5 2.5
      vertex 4.27103 5 9.31545
    endloop
  endfacet
  facet normal 0 1 0
    outer loop
      vertex 4.46417 5 9.15567
      vertex 2.5 5 2.5
      vertex 4.36258 5 9.22949
    endloop
  endfacet
  facet normal 0 1 0
    outer loop
      vertex 4.57422 5 9.09517
      vertex 2.5 5 2.5
      vertex 4.46417 5 9.15567
    endloop
  endfacet
  facet normal 0 1 0
    outer loop
      vertex 4.69098 5 9.04894
      vertex 2.5 5 2.5
      vertex 4.57422 5 9.09517
    endloop
  endfacet
  facet normal -0.125025 0 -0.992154
    outer loop
      vertex 5.06279 0 10.998
      vertex 5.18738 5 10.9823
      vertex 5.18738 0 10.9823
    endloop
  endfacet
  facet normal -0.125025 0 -0.992154
    outer loop
      vertex 5.18738 5 10.9823
      vertex 5.06279 0 10.998
      vertex 5.06279 5 10.998
    endloop
  endfacet
  facet normal 0.248452 0 -0.968644
    outer loop
      vertex 4.69098 0 10.9511
      vertex 4.81262 5 10.9823
      vertex 4.81262 0 10.9823
    endloop
  endfacet
  facet normal 0.248452 0 -0.968644
    outer loop
      vertex 4.81262 5 10.9823
      vertex 4.69098 0 10.9511
      vertex 4.69098 5 10.9511
    endloop
  endfacet
  facet normal -0.982302 0 -0.187306
    outer loop
      vertex 5.99211 0 10.1253
      vertex 5.96858 5 10.2487
      vertex 5.99211 5 10.1253
    endloop
  endfacet
  facet normal -0.982302 -0 -0.187306
    outer loop
      vertex 5.96858 5 10.2487
      vertex 5.99211 0 10.1253
      vertex 5.96858 0 10.2487
    endloop
  endfacet
  facet normal -0.998023 0 -0.0628444
    outer loop
      vertex 6 0 10
      vertex 5.99211 5 10.1253
      vertex 6 5 10
    endloop
  endfacet
  facet normal -0.998023 -0 -0.0628444
    outer loop
      vertex 5.99211 5 10.1253
      vertex 6 0 10
      vertex 5.99211 0 10.1253
    endloop
  endfacet
  facet normal -0.904929 0 -0.425563
    outer loop
      vertex 5.92978 0 10.3681
      vertex 5.87631 5 10.4818
      vertex 5.92978 5 10.3681
    endloop
  endfacet
  facet normal -0.904929 -0 -0.425563
    outer loop
      vertex 5.87631 5 10.4818
      vertex 5.92978 0 10.3681
      vertex 5.87631 0 10.4818
    endloop
  endfacet
  facet normal 0.368616 0 -0.929582
    outer loop
      vertex 4.57422 0 10.9048
      vertex 4.69098 5 10.9511
      vertex 4.69098 0 10.9511
    endloop
  endfacet
  facet normal 0.368616 0 -0.929582
    outer loop
      vertex 4.69098 5 10.9511
      vertex 4.57422 0 10.9048
      vertex 4.57422 5 10.9048
    endloop
  endfacet
  facet normal -0.684669 0 -0.728854
    outer loop
      vertex 5.63742 0 10.7705
      vertex 5.72897 5 10.6845
      vertex 5.72897 0 10.6845
    endloop
  endfacet
  facet normal -0.684669 0 -0.728854
    outer loop
      vertex 5.72897 5 10.6845
      vertex 5.63742 0 10.7705
      vertex 5.63742 5 10.7705
    endloop
  endfacet
  facet normal 0.904929 0 -0.425563
    outer loop
      vertex 4.12369 0 10.4818
      vertex 4.07022 5 10.3681
      vertex 4.12369 5 10.4818
    endloop
  endfacet
  facet normal 0.904929 0 -0.425563
    outer loop
      vertex 4.07022 5 10.3681
      vertex 4.12369 0 10.4818
      vertex 4.07022 0 10.3681
    endloop
  endfacet
  facet normal 0.982276 -0 0.187441
    outer loop
      vertex 4.00788 0 9.87467
      vertex 4.03142 5 9.75131
      vertex 4.00788 5 9.87467
    endloop
  endfacet
  facet normal 0.982276 0 0.187441
    outer loop
      vertex 4.03142 5 9.75131
      vertex 4.00788 0 9.87467
      vertex 4.03142 0 9.75131
    endloop
  endfacet
  facet normal 0.125338 0 0.992114
    outer loop
      vertex 4.81262 5 9.01771
      vertex 4.93721 0 9.00197
      vertex 4.93721 5 9.00197
    endloop
  endfacet
  facet normal 0.125338 0 0.992114
    outer loop
      vertex 4.93721 0 9.00197
      vertex 4.81262 5 9.01771
      vertex 4.81262 0 9.01771
    endloop
  endfacet
  facet normal -0.587736 0 -0.809053
    outer loop
      vertex 5.53583 0 10.8443
      vertex 5.63742 5 10.7705
      vertex 5.63742 0 10.7705
    endloop
  endfacet
  facet normal -0.587736 0 -0.809053
    outer loop
      vertex 5.63742 5 10.7705
      vertex 5.53583 0 10.8443
      vertex 5.53583 5 10.8443
    endloop
  endfacet
  facet normal 0.481751 0 -0.876308
    outer loop
      vertex 4.46417 0 10.8443
      vertex 4.57422 5 10.9048
      vertex 4.57422 0 10.9048
    endloop
  endfacet
  facet normal 0.481751 0 -0.876308
    outer loop
      vertex 4.57422 5 10.9048
      vertex 4.46417 0 10.8443
      vertex 4.46417 5 10.8443
    endloop
  endfacet
  facet normal -0.125338 0 0.992114
    outer loop
      vertex 5.06279 5 9.00197
      vertex 5.18738 0 9.01771
      vertex 5.18738 5 9.01771
    endloop
  endfacet
  facet normal -0.125338 0 0.992114
    outer loop
      vertex 5.18738 0 9.01771
      vertex 5.06279 5 9.00197
      vertex 5.06279 0 9.00197
    endloop
  endfacet
  facet normal -0.844255 0 -0.535942
    outer loop
      vertex 5.87631 0 10.4818
      vertex 5.80902 5 10.5878
      vertex 5.87631 5 10.4818
    endloop
  endfacet
  facet normal -0.844255 -0 -0.535942
    outer loop
      vertex 5.80902 5 10.5878
      vertex 5.87631 0 10.4818
      vertex 5.80902 0 10.5878
    endloop
  endfacet
  facet normal -0.770501 0 0.637439
    outer loop
      vertex 5.72897 0 9.31545
      vertex 5.80902 5 9.41221
      vertex 5.72897 5 9.31545
    endloop
  endfacet
  facet normal -0.770501 0 0.637439
    outer loop
      vertex 5.80902 5 9.41221
      vertex 5.72897 0 9.31545
      vertex 5.80902 0 9.41221
    endloop
  endfacet
  facet normal 0.770501 -0 0.637439
    outer loop
      vertex 4.19098 0 9.41221
      vertex 4.27103 5 9.31545
      vertex 4.19098 5 9.41221
    endloop
  endfacet
  facet normal 0.770501 0 0.637439
    outer loop
      vertex 4.27103 5 9.31545
      vertex 4.19098 0 9.41221
      vertex 4.27103 0 9.31545
    endloop
  endfacet
  facet normal 0.58784 0 0.808977
    outer loop
      vertex 4.36258 5 9.22949
      vertex 4.46417 0 9.15567
      vertex 4.46417 5 9.15567
    endloop
  endfacet
  facet normal 0.58784 0 0.808977
    outer loop
      vertex 4.46417 0 9.15567
      vertex 4.36258 5 9.22949
      vertex 4.36258 0 9.22949
    endloop
  endfacet
  facet normal -0.481751 0 0.876308
    outer loop
      vertex 5.42578 5 9.09517
      vertex 5.53583 0 9.15567
      vertex 5.53583 5 9.15567
    endloop
  endfacet
  facet normal -0.481751 0 0.876308
    outer loop
      vertex 5.53583 0 9.15567
      vertex 5.42578 5 9.09517
      vertex 5.42578 0 9.09517
    endloop
  endfacet
  facet normal -0.844346 0 0.535798
    outer loop
      vertex 5.80902 0 9.41221
      vertex 5.87631 5 9.51825
      vertex 5.80902 5 9.41221
    endloop
  endfacet
  facet normal -0.844346 0 0.535798
    outer loop
      vertex 5.87631 5 9.51825
      vertex 5.80902 0 9.41221
      vertex 5.87631 0 9.51825
    endloop
  endfacet
  facet normal -0.248676 0 0.968587
    outer loop
      vertex 5.18738 5 9.01771
      vertex 5.30902 0 9.04894
      vertex 5.30902 5 9.04894
    endloop
  endfacet
  facet normal -0.248676 0 0.968587
    outer loop
      vertex 5.30902 0 9.04894
      vertex 5.18738 5 9.01771
      vertex 5.18738 0 9.01771
    endloop
  endfacet
  facet normal 0.684669 0 -0.728854
    outer loop
      vertex 4.27103 0 10.6845
      vertex 4.36258 5 10.7705
      vertex 4.36258 0 10.7705
    endloop
  endfacet
  facet normal 0.684669 0 -0.728854
    outer loop
      vertex 4.36258 5 10.7705
      vertex 4.27103 0 10.6845
      vertex 4.27103 5 10.6845
    endloop
  endfacet
  facet normal -0.904828 0 0.425778
    outer loop
      vertex 5.87631 0 9.51825
      vertex 5.92978 5 9.63188
      vertex 5.87631 5 9.51825
    endloop
  endfacet
  facet normal -0.904828 0 0.425778
    outer loop
      vertex 5.92978 5 9.63188
      vertex 5.87631 0 9.51825
      vertex 5.92978 0 9.63188
    endloop
  endfacet
  facet normal -0.248452 0 -0.968644
    outer loop
      vertex 5.18738 0 10.9823
      vertex 5.30902 5 10.9511
      vertex 5.30902 0 10.9511
    endloop
  endfacet
  facet normal -0.248452 0 -0.968644
    outer loop
      vertex 5.30902 5 10.9511
      vertex 5.18738 0 10.9823
      vertex 5.18738 5 10.9823
    endloop
  endfacet
  facet normal 0.982287 0 -0.187383
    outer loop
      vertex 4.03142 0 10.2487
      vertex 4.00788 5 10.1253
      vertex 4.03142 5 10.2487
    endloop
  endfacet
  facet normal 0.982287 0 -0.187383
    outer loop
      vertex 4.00788 5 10.1253
      vertex 4.03142 0 10.2487
      vertex 4.00788 0 10.1253
    endloop
  endfacet
  facet normal 0.368135 0 0.929773
    outer loop
      vertex 4.57422 5 9.09517
      vertex 4.69098 0 9.04894
      vertex 4.69098 5 9.04894
    endloop
  endfacet
  facet normal 0.368135 0 0.929773
    outer loop
      vertex 4.69098 0 9.04894
      vertex 4.57422 5 9.09517
      vertex 4.57422 0 9.09517
    endloop
  endfacet
  facet normal -0.951069 0 0.30898
    outer loop
      vertex 5.92978 0 9.63188
      vertex 5.96858 5 9.75131
      vertex 5.92978 5 9.63188
    endloop
  endfacet
  facet normal -0.951069 0 0.30898
    outer loop
      vertex 5.96858 5 9.75131
      vertex 5.92978 0 9.63188
      vertex 5.96858 0 9.75131
    endloop
  endfacet
  facet normal 0.770307 0 -0.637674
    outer loop
      vertex 4.27103 0 10.6845
      vertex 4.19098 5 10.5878
      vertex 4.27103 5 10.6845
    endloop
  endfacet
  facet normal 0.770307 0 -0.637674
    outer loop
      vertex 4.19098 5 10.5878
      vertex 4.27103 0 10.6845
      vertex 4.19098 0 10.5878
    endloop
  endfacet
  facet normal -0.951046 0 -0.30905
    outer loop
      vertex 5.96858 0 10.2487
      vertex 5.92978 5 10.3681
      vertex 5.96858 5 10.2487
    endloop
  endfacet
  facet normal -0.951046 -0 -0.30905
    outer loop
      vertex 5.92978 5 10.3681
      vertex 5.96858 0 10.2487
      vertex 5.92978 0 10.3681
    endloop
  endfacet
  facet normal 0.951069 -0 0.30898
    outer loop
      vertex 4.03142 0 9.75131
      vertex 4.07022 5 9.63188
      vertex 4.03142 5 9.75131
    endloop
  endfacet
  facet normal 0.951069 0 0.30898
    outer loop
      vertex 4.07022 5 9.63188
      vertex 4.03142 0 9.75131
      vertex 4.07022 0 9.63188
    endloop
  endfacet
  facet normal 0.998029 -0 0.0627501
    outer loop
      vertex 4 0 10
      vertex 4.00788 5 9.87467
      vertex 4 5 10
    endloop
  endfacet
  facet normal 0.998029 0 0.0627501
    outer loop
      vertex 4.00788 5 9.87467
      vertex 4 0 10
      vertex 4.00788 0 9.87467
    endloop
  endfacet
  facet normal -0.368135 0 0.929773
    outer loop
      vertex 5.30902 5 9.04894
      vertex 5.42578 0 9.09517
      vertex 5.42578 5 9.09517
    endloop
  endfacet
  facet normal -0.368135 0 0.929773
    outer loop
      vertex 5.42578 0 9.09517
      vertex 5.30902 5 9.04894
      vertex 5.30902 0 9.04894
    endloop
  endfacet
  facet normal -0 0 1
    outer loop
      vertex 4.93721 5 9.00197
      vertex 5.06279 0 9.00197
      vertex 5.06279 5 9.00197
    endloop
  endfacet
  facet normal 0 0 1
    outer loop
      vertex 5.06279 0 9.00197
      vertex 4.93721 5 9.00197
      vertex 4.93721 0 9.00197
    endloop
  endfacet
  facet normal 0.481751 0 0.876308
    outer loop
      vertex 4.46417 5 9.15567
      vertex 4.57422 0 9.09517
      vertex 4.57422 5 9.09517
    endloop
  endfacet
  facet normal 0.481751 0 0.876308
    outer loop
      vertex 4.57422 0 9.09517
      vertex 4.46417 5 9.15567
      vertex 4.46417 0 9.15567
    endloop
  endfacet
  facet normal 0.904828 -0 0.425778
    outer loop
      vertex 4.07022 0 9.63188
      vertex 4.12369 5 9.51825
      vertex 4.07022 5 9.63188
    endloop
  endfacet
  facet normal 0.904828 0 0.425778
    outer loop
      vertex 4.12369 5 9.51825
      vertex 4.07022 0 9.63188
      vertex 4.12369 0 9.51825
    endloop
  endfacet
  facet normal -0.98229 0 0.187365
    outer loop
      vertex 5.96858 0 9.75131
      vertex 5.99211 5 9.87467
      vertex 5.96858 5 9.75131
    endloop
  endfacet
  facet normal -0.98229 0 0.187365
    outer loop
      vertex 5.99211 5 9.87467
      vertex 5.96858 0 9.75131
      vertex 5.99211 0 9.87467
    endloop
  endfacet
  facet normal -0.58784 0 0.808977
    outer loop
      vertex 5.53583 5 9.15567
      vertex 5.63742 0 9.22949
      vertex 5.63742 5 9.22949
    endloop
  endfacet
  facet normal -0.58784 0 0.808977
    outer loop
      vertex 5.63742 0 9.22949
      vertex 5.53583 5 9.15567
      vertex 5.53583 0 9.15567
    endloop
  endfacet
  facet normal -0.368616 0 -0.929582
    outer loop
      vertex 5.30902 0 10.9511
      vertex 5.42578 5 10.9048
      vertex 5.42578 0 10.9048
    endloop
  endfacet
  facet normal -0.368616 0 -0.929582
    outer loop
      vertex 5.42578 5 10.9048
      vertex 5.30902 0 10.9511
      vertex 5.30902 5 10.9511
    endloop
  endfacet
  facet normal 0.844255 0 -0.535942
    outer loop
      vertex 4.19098 0 10.5878
      vertex 4.12369 5 10.4818
      vertex 4.19098 5 10.5878
    endloop
  endfacet
  facet normal 0.844255 0 -0.535942
    outer loop
      vertex 4.12369 5 10.4818
      vertex 4.19098 0 10.5878
      vertex 4.12369 0 10.4818
    endloop
  endfacet
  facet normal 0.248676 0 0.968587
    outer loop
      vertex 4.69098 5 9.04894
      vertex 4.81262 0 9.01771
      vertex 4.81262 5 9.01771
    endloop
  endfacet
  facet normal 0.248676 0 0.968587
    outer loop
      vertex 4.81262 0 9.01771
      vertex 4.69098 5 9.04894
      vertex 4.69098 0 9.04894
    endloop
  endfacet
  facet normal 0.6845 0 0.729013
    outer loop
      vertex 4.27103 5 9.31545
      vertex 4.36258 0 9.22949
      vertex 4.36258 5 9.22949
    endloop
  endfacet
  facet normal 0.6845 0 0.729013
    outer loop
      vertex 4.36258 0 9.22949
      vertex 4.27103 5 9.31545
      vertex 4.27103 0 9.31545
    endloop
  endfacet
  facet normal 0 0 -1
    outer loop
      vertex 4.93721 0 10.998
      vertex 5.06279 5 10.998
      vertex 5.06279 0 10.998
    endloop
  endfacet
  facet normal -0 0 -1
    outer loop
      vertex 5.06279 5 10.998
      vertex 4.93721 0 10.998
      vertex 4.93721 5 10.998
    endloop
  endfacet
  facet normal 0.951046 0 -0.30905
    outer loop
      vertex 4.07022 0 10.3681
      vertex 4.03142 5 10.2487
      vertex 4.07022 5 10.3681
    endloop
  endfacet
  facet normal 0.951046 0 -0.30905
    outer loop
      vertex 4.03142 5 10.2487
      vertex 4.07022 0 10.3681
      vertex 4.03142 0 10.2487
    endloop
  endfacet
  facet normal -0.998024 0 0.0628294
    outer loop
      vertex 5.99211 0 9.87467
      vertex 6 5 10
      vertex 5.99211 5 9.87467
    endloop
  endfacet
  facet normal -0.998024 0 0.0628294
    outer loop
      vertex 6 5 10
      vertex 5.99211 0 9.87467
      vertex 6 0 10
    endloop
  endfacet
  facet normal -0.481751 0 -0.876308
    outer loop
      vertex 5.42578 0 10.9048
      vertex 5.53583 5 10.8443
      vertex 5.53583 0 10.8443
    endloop
  endfacet
  facet normal -0.481751 0 -0.876308
    outer loop
      vertex 5.53583 5 10.8443
      vertex 5.42578 0 10.9048
      vertex 5.42578 5 10.9048
    endloop
  endfacet
  facet normal 0.125025 0 -0.992154
    outer loop
      vertex 4.81262 0 10.9823
      vertex 4.93721 5 10.998
      vertex 4.93721 0 10.998
    endloop
  endfacet
  facet normal 0.125025 0 -0.992154
    outer loop
      vertex 4.93721 5 10.998
      vertex 4.81262 0 10.9823
      vertex 4.81262 5 10.9823
    endloop
  endfacet
  facet normal -0.770307 0 -0.637674
    outer loop
      vertex 5.80902 0 10.5878
      vertex 5.72897 5 10.6845
      vertex 5.80902 5 10.5878
    endloop
  endfacet
  facet normal -0.770307 -0 -0.637674
    outer loop
      vertex 5.72897 5 10.6845
      vertex 5.80902 0 10.5878
      vertex 5.72897 0 10.6845
    endloop
  endfacet
  facet normal -0.6845 0 0.729013
    outer loop
      vertex 5.63742 5 9.22949
      vertex 5.72897 0 9.31545
      vertex 5.72897 5 9.31545
    endloop
  endfacet
  facet normal -0.6845 0 0.729013
    outer loop
      vertex 5.72897 0 9.31545
      vertex 5.63742 5 9.22949
      vertex 5.63742 0 9.22949
    endloop
  endfacet
  facet normal 0.587736 0 -0.809053
    outer loop
      vertex 4.36258 0 10.7705
      vertex 4.46417 5 10.8443
      vertex 4.46417 0 10.8443
    endloop
  endfacet
  facet normal 0.587736 0 -0.809053
    outer loop
      vertex 4.46417 5 10.8443
      vertex 4.36258 0 10.7705
      vertex 4.36258 5 10.7705
    endloop
  endfacet
  facet normal 0.844346 -0 0.535798
    outer loop
      vertex 4.12369 0 9.51825
      vertex 4.19098 5 9.41221
      vertex 4.12369 5 9.51825
    endloop
  endfacet
  facet normal 0.844346 0 0.535798
    outer loop
      vertex 4.19098 5 9.41221
      vertex 4.12369 0 9.51825
      vertex 4.19098 0 9.41221
    endloop
  endfacet
  facet normal 0.998028 0 -0.0627651
    outer loop
      vertex 4.00788 0 10.1253
      vertex 4 5 10
      vertex 4.00788 5 10.1253
    endloop
  endfacet
  facet normal 0.998028 0 -0.0627651
    outer loop
      vertex 4 5 10
      vertex 4.00788 0 10.1253
      vertex 4 0 10
    endloop
  endfacet
endsolid OpenSCAD_Model
